<svg width="96" height="100" viewBox="0 0 96 100" fill="none" xmlns="http://www.w3.org/2000/svg">
<g id="Group">
<g id="Group_2">
<path id="Vector" d="M48.3606 48.3362C67.3778 48.2265 82.8476 44.0939 93.3071 40.2538C94.6968 39.7418 95.4648 38.2424 95.0625 36.8527C89.3208 16.1166 70.3036 0.902832 47.7389 0.902832C25.1742 0.902832 6.15701 16.1166 0.415277 36.8527C0.0129896 38.279 0.780994 39.7418 2.17071 40.2538C12.8496 44.167 28.7582 48.4459 48.3606 48.3362Z" fill="#ECECED"/>
<path id="Vector_2" d="M48.2868 51.5177C29.1964 51.4446 13.3243 54.8823 1.98714 58.3566C0.560848 58.7955 -0.280299 60.2949 0.0854172 61.7212C5.35172 83.1887 24.6981 99.0974 47.7747 99.0974C70.8514 99.0974 90.1978 83.1887 95.4641 61.7578C95.8298 60.2949 94.9886 58.8321 93.5624 58.3932C82.3715 54.9555 66.9017 51.5909 48.2868 51.5177Z" fill="#ECECED"/>
</g>
<g id="Group_3">
<path id="Vector_3" d="M48.3602 48.3363C64.9637 48.2632 78.8609 45.0814 89.101 41.7168C85.261 22.407 68.2186 7.85156 47.7751 7.85156C27.3316 7.85156 10.2892 22.4071 6.44922 41.7534C16.8721 45.1546 31.2082 48.446 48.3602 48.3363Z" fill="#C0C0C0"/>
<path id="Vector_4" d="M48.2872 51.5181C31.4643 51.4449 17.1283 54.1512 6.19336 57.1501C9.59452 77.045 26.8929 92.1856 47.7387 92.1856C68.5845 92.1856 85.8828 77.045 89.284 57.1501C78.6051 54.1878 64.6347 51.5546 48.2872 51.5181Z" fill="#C0C0C0"/>
</g>
<g id="Group_4">
<path id="Vector_5" d="M48.3598 48.3363C61.4524 48.2632 72.8993 46.2883 82.1519 43.8014C79.2262 27.4539 64.9267 15.0562 47.7381 15.0562C30.5494 15.0562 16.2499 27.4539 13.3242 43.8014C22.8694 46.3614 34.7552 48.4094 48.3598 48.3363Z" fill="#919190"/>
<path id="Vector_6" d="M48.287 51.5182C34.8286 51.4816 23.016 53.1639 13.2148 55.3948C15.8114 72.1445 30.2938 84.9812 47.775 84.9812C65.2562 84.9812 79.7385 72.1445 82.3351 55.3948C72.7534 53.237 61.2699 51.5547 48.287 51.5182Z" fill="#919190"/>
</g>
<g id="Group_5">
<path id="Vector_7" d="M48.2859 51.5181C38.119 51.4815 28.8664 52.4324 20.7109 53.8587C22.5761 67.1342 33.9864 77.3377 47.7373 77.3377C61.5248 77.3377 72.8986 67.1342 74.7637 53.8953C66.9374 52.5055 58.0139 51.5547 48.2859 51.5181Z" fill="#5D5C5C"/>
<path id="Vector_8" d="M48.3582 48.3364C58.1228 48.2998 66.9731 47.1661 74.6897 45.5569C72.5686 32.574 61.3045 22.6997 47.7365 22.6997C34.1684 22.6997 22.9044 32.6106 20.7832 45.5935C28.8289 47.2392 38.0816 48.4095 48.3582 48.3364Z" fill="#5D5C5C"/>
</g>
<g id="Group_6">
<path id="Vector_9" d="M48.3597 48.3361C55.1986 48.2996 61.5621 47.751 67.4135 46.8733C65.9141 37.3647 57.6489 30.0869 47.738 30.0869C37.7905 30.0869 29.5619 37.3647 28.0625 46.8733C34.2797 47.8241 41.0454 48.3727 48.3597 48.3361Z" fill="black"/>
<path id="Vector_10" d="M48.286 51.518C41.0449 51.4814 34.2791 51.9934 28.0254 52.7614C29.3785 62.4894 37.6803 69.95 47.774 69.95C57.8678 69.95 66.1695 62.4894 67.5227 52.7614C61.5615 51.9934 55.1249 51.518 48.286 51.518Z" fill="black"/>
</g>
</g>
</svg>
