<svg width="242" height="34" viewBox="0 0 242 34" fill="none" xmlns="http://www.w3.org/2000/svg">
<g id="Group">
<path id="Vector" d="M222.311 30.4908C222.237 31.3319 222.201 32.0999 222.128 32.9776C220.519 32.9776 218.946 32.9776 217.264 32.9776C217.264 22.189 217.264 11.437 217.264 0.575195C218.873 0.575195 220.445 0.575195 222.164 0.575195C222.164 4.48835 222.164 8.36493 222.164 12.717C225.383 9.42551 228.967 8.62094 232.953 9.49866C235.696 10.0838 237.853 11.693 239.499 13.9604C243.193 19.117 242.754 25.5902 238.439 30.1616C234.123 34.6965 228.637 34.8062 222.311 30.4908ZM222.201 21.4576C222.201 25.773 225.273 28.8816 229.479 28.8816C233.648 28.845 236.793 25.6633 236.756 21.421C236.756 17.1787 233.575 13.997 229.405 13.997C225.2 13.997 222.201 17.1421 222.201 21.4576Z" fill="#FBFBFB"/>
<path id="Vector_2" d="M86.6295 12.7534C86.666 11.6197 86.7026 10.7785 86.7758 9.86425C88.3849 9.86425 89.9575 9.86425 91.6763 9.86425C91.6763 17.5809 91.6763 25.1877 91.6763 32.9409C90.0306 32.9409 88.4946 32.9409 86.7758 32.9409C86.7392 32.0632 86.7026 31.2221 86.6295 30.0518C83.5575 33.3798 79.9003 34.2941 75.7677 33.3798C72.9151 32.7215 70.7208 31.0026 69.0751 28.6255C65.5277 23.542 66.442 16.2643 71.0134 12.022C74.3048 8.94997 81.4729 7.37739 86.6295 12.7534ZM71.9643 21.2746C71.8911 25.5169 74.9266 28.7718 79.1323 28.8815C83.3015 28.9912 86.5563 25.846 86.6661 21.6037C86.7758 17.398 83.6672 14.1065 79.498 13.9968C75.3289 13.8871 72.074 17.0323 71.9643 21.2746Z" fill="#FBFBFB"/>
<path id="Vector_3" d="M25.0073 9.90077C25.0073 17.6174 25.0073 25.2242 25.0073 32.9408C23.3982 32.9408 21.8256 32.9408 20.0701 32.9408C19.997 32.0997 19.9604 31.222 19.8873 30.3077C13.7798 34.9523 7.70896 34.7329 3.35695 29.7957C-0.885357 25.0414 -0.775642 17.4711 3.5398 12.8265C7.96496 8.10875 14.1456 7.96248 19.8873 12.5705C19.9239 11.6562 19.997 10.8151 20.0336 9.90077C21.6793 9.90077 23.2519 9.90077 25.0073 9.90077ZM19.997 21.4574C19.997 17.1785 16.8884 13.9968 12.7193 13.9968C8.55011 13.9968 5.36838 17.2151 5.36838 21.4208C5.36838 25.6631 8.51354 28.8814 12.6827 28.8814C16.8884 28.8814 19.997 25.7363 19.997 21.4574Z" fill="#FBFBFB"/>
<path id="Vector_4" d="M142.037 12.6438C142.037 11.5832 142.037 10.8152 142.037 9.86434C143.646 9.86434 145.146 9.86434 146.828 9.86434C146.828 17.4712 146.828 25.1147 146.828 32.9044C145.329 32.9044 143.756 32.9044 142.037 32.9044C142.037 32.0267 142.037 31.2221 142.037 29.9056C139.002 33.1239 135.637 34.1479 131.687 33.453C128.835 32.941 126.604 31.4416 124.849 29.2107C121.045 24.4198 121.374 17.0324 125.653 12.6804C130.078 8.14548 135.857 8.07233 142.037 12.6438ZM127.299 21.3478C127.262 25.6267 130.334 28.8084 134.54 28.8816C138.709 28.9181 141.927 25.773 141.964 21.5307C142.001 17.325 138.892 14.0701 134.686 13.9969C130.554 13.9238 127.335 17.1055 127.299 21.3478Z" fill="#FBFBFB"/>
<path id="Vector_5" d="M164.602 0.538574C166.32 0.538574 167.856 0.538574 169.575 0.538574C169.575 4.41516 169.575 8.21861 169.575 12.4975C172.062 9.6449 174.915 8.84032 178.17 9.27918C182.046 9.79118 184.899 12.3146 185.374 16.2278C185.776 19.2632 185.63 22.4084 185.703 25.4804C185.74 27.9307 185.703 30.381 185.703 32.941C183.985 32.941 182.485 32.941 180.73 32.941C180.693 32.3924 180.62 31.7707 180.62 31.1855C180.62 27.2724 180.62 23.3958 180.62 19.4826C180.583 16.0815 179.047 14.2163 176.048 13.8872C172.83 13.5581 170.416 15.2403 169.831 18.4586C169.575 19.8484 169.612 21.3112 169.612 22.7375C169.575 26.1021 169.612 29.4667 169.612 32.941C167.856 32.941 166.284 32.941 164.602 32.941C164.602 22.1158 164.602 11.4003 164.602 0.538574Z" fill="#FBFBFB"/>
<path id="Vector_6" d="M102.246 33.014C100.454 33.014 98.9549 33.014 97.3457 33.014C97.3457 25.2609 97.3457 17.5808 97.3457 9.82767C98.9914 9.82767 100.491 9.82767 102.137 9.82767C102.21 10.5957 102.246 11.3271 102.283 11.7294C104.111 10.9248 105.903 9.71796 107.842 9.38881C113.876 8.36481 118.228 12.022 118.374 18.1294C118.484 23.03 118.411 27.9672 118.411 32.9775C116.729 32.9775 115.193 32.9775 113.51 32.9775C113.474 32.3923 113.401 31.7706 113.401 31.1855C113.401 27.3454 113.437 23.5054 113.401 19.6654C113.364 16.0448 111.755 14.1431 108.61 13.9237C105.282 13.7042 102.795 15.5328 102.502 19.0437C102.173 22.8106 102.319 26.5774 102.283 30.3809C102.246 31.1855 102.246 32.0266 102.246 33.014Z" fill="#FBFBFB"/>
<path id="Vector_7" d="M211.559 32.9775C209.95 32.9775 208.414 32.9775 206.805 32.9775C206.695 32.2461 206.622 31.5512 206.476 30.5638C204.172 33.1238 201.429 33.9649 198.284 33.6358C194.188 33.1969 191.116 30.7101 190.787 26.5775C190.384 21.0552 190.677 15.4963 190.677 9.86426C192.176 9.86426 193.676 9.86426 195.358 9.86426C195.395 10.5225 195.468 11.1077 195.468 11.7294C195.468 15.4963 195.431 19.2997 195.468 23.0666C195.504 26.8335 197.15 28.7718 200.332 28.918C203.77 29.0643 206.183 27.1992 206.439 23.5786C206.695 19.9214 206.549 16.2643 206.586 12.5706C206.586 11.7294 206.586 10.8517 206.586 9.86426C208.268 9.86426 209.84 9.86426 211.523 9.86426C211.559 17.5809 211.559 25.2243 211.559 32.9775Z" fill="#FBFBFB"/>
<path id="Vector_8" d="M46.9865 14.0702C45.6333 14.8382 44.3168 15.5696 42.927 16.3376C41.6836 14.3628 39.9647 13.485 37.6973 13.8142C36.4904 13.997 35.4299 14.3993 35.1373 15.7159C34.8447 17.1422 35.8321 17.837 36.9293 18.2759C37.9899 18.7148 39.1236 18.9708 40.1842 19.3731C41.7202 19.9582 43.3659 20.397 44.7556 21.2382C47.9373 23.1765 48.5591 27.6748 46.2185 30.5639C42.3785 35.3183 31.5167 34.6965 29.0664 28.1502C30.383 27.3457 31.7727 26.5411 33.2721 25.6634C34.5156 28.5891 36.8561 29.2474 39.6356 28.9182C40.879 28.7719 42.0493 28.3697 42.3419 26.9434C42.671 25.4074 41.5739 24.7491 40.4402 24.2737C39.343 23.8348 38.1362 23.5788 37.0024 23.1765C35.759 22.7376 34.479 22.3719 33.3453 21.7502C29.1761 19.5193 28.6641 14.1433 32.2847 11.1444C36.6002 7.56043 44.207 8.95015 46.9865 14.0702Z" fill="#FBFBFB"/>
<path id="Vector_9" d="M64.6517 28.7355C64.6517 30.1252 64.6517 31.5149 64.6517 33.3069C62.494 33.1606 60.4459 33.2703 58.4711 32.8681C55.6551 32.3195 54.1556 30.308 54.0093 27.1263C53.8996 23.7983 53.9362 20.4703 53.9362 17.1423C53.9362 16.4108 53.9362 15.6428 53.9362 14.692C52.5099 14.6188 51.1933 14.5457 49.7305 14.4725C49.7305 12.9 49.7305 11.4005 49.7305 9.71824C51.0836 9.71824 52.4002 9.71824 53.9362 9.71824C53.9362 8.25538 53.8631 6.97537 53.9728 5.69537C54.0093 5.25651 54.4116 4.63479 54.7774 4.4885C56.0574 3.9765 57.3739 3.68393 58.9465 3.2085C58.9465 5.43936 58.9465 7.48737 58.9465 9.68167C60.9579 9.68167 62.75 9.68167 64.6517 9.68167C64.6517 11.364 64.6517 12.8268 64.6517 14.5091C62.8231 14.5091 61.0311 14.5091 58.9831 14.5091C58.9831 17.1788 58.9465 19.5926 58.9831 22.0429C59.1294 28.1137 58.0322 28.3697 64.6517 28.7355Z" fill="#FBFBFB"/>
</g>
</svg>
