<svg width="40" height="51" viewBox="0 0 40 51" fill="none" xmlns="http://www.w3.org/2000/svg">
<path id="Vector" d="M12.2857 38.5556H27.7143M12.2857 30.7222H27.7143M37.999 17.6667H26.6847C25.2446 17.6667 24.5252 17.6666 23.9752 17.382C23.4913 17.1317 23.0982 16.7324 22.8517 16.241C22.5714 15.6825 22.5714 14.9512 22.5714 13.4889V2M38 40.6445V19.3743C38 18.164 38.0005 17.5589 37.8719 16.986C37.7579 16.478 37.5702 15.99 37.3139 15.5386C37.0249 15.0295 36.6198 14.5855 35.81 13.6974L27.5862 4.67868C26.6862 3.6917 26.2358 3.19817 25.7003 2.8445C25.2257 2.53101 24.7022 2.29934 24.1532 2.15869C23.5339 2 22.8728 2 21.5482 2H10.2291C7.3488 2 5.9076 2 4.80748 2.56919C3.83979 3.06986 3.0536 3.86882 2.56054 4.85144C2 5.96854 2 7.43087 2 10.3556V40.6445C2 43.5692 2 45.0315 2.56054 46.1486C3.0536 47.1312 3.83979 47.9301 4.80748 48.4307C5.9076 48.9999 7.3488 49 10.2291 49H29.7719C32.6522 49 34.0913 48.9999 35.1915 48.4307C36.1591 47.9301 36.9469 47.1312 37.44 46.1486C38.0005 45.0315 38 43.5692 38 40.6445Z" stroke="#0C0E4A" stroke-width="3" stroke-linecap="round" stroke-linejoin="round"/>
</svg>
