<svg width="13" height="15" viewBox="0 0 13 15" fill="none" xmlns="http://www.w3.org/2000/svg">
<g id="Group">
<path id="Vector" d="M8.84901 14.5576C7.162 14.5576 5.47498 14.5576 3.78797 14.5576C3.29134 14.3529 3.17382 14.0382 3.41265 13.553C3.65907 13.0564 3.92823 12.5711 4.14812 12.0669C4.32629 11.665 4.59546 11.4793 5.03143 11.5172C5.25131 11.5362 5.47498 11.521 5.69865 11.521C5.70245 11.4717 5.71003 11.4414 5.71003 11.4073C5.71003 10.4557 5.71003 9.50415 5.71382 8.54881C5.71382 8.45024 5.67591 8.4237 5.58871 8.40475C5.12241 8.2986 4.7054 8.09388 4.33767 7.79439C3.80313 7.35842 3.43919 6.80114 3.16244 6.1794C3.13212 6.10737 3.10179 6.05809 3.00322 6.05051C1.85453 5.9709 0.97501 5.44394 0.364652 4.46206C0.0575773 3.96543 -0.0789013 3.43848 0.0462032 2.86224C0.258502 1.87278 1.07737 1.22072 2.11232 1.21693C3.39749 1.21313 4.67886 1.21693 5.96403 1.21693C6.02468 1.21693 6.08155 1.21693 6.17632 1.21693C6.11567 1.1866 6.08534 1.17143 6.0588 1.15627C5.82755 1.03496 5.70244 0.849195 5.71382 0.583822C5.72519 0.318449 5.86546 0.14406 6.1005 0.0379105C6.12325 0.0265373 6.14979 0.0113731 6.17253 0C6.26731 0 6.36209 0 6.45686 0C6.47582 0.0113731 6.49477 0.0265382 6.51373 0.0341203C6.76015 0.136479 6.90421 0.314658 6.91558 0.583822C6.92316 0.860568 6.79427 1.05391 6.54406 1.16764C6.5251 1.17902 6.50615 1.19418 6.47203 1.21693C7.12029 1.21693 7.74582 1.21693 8.37134 1.21693C9.12576 1.21693 9.88018 1.20555 10.6308 1.22072C12.1245 1.25484 13.0874 2.85466 12.4126 4.18532C11.8364 5.32263 10.9113 5.95573 9.62618 6.05809C9.5731 6.06188 9.50865 6.10738 9.48212 6.15666C9.37597 6.34621 9.29256 6.55093 9.18262 6.73669C8.68979 7.56693 8.02256 8.17729 7.05585 8.40475C6.94591 8.43129 6.91558 8.4692 6.91558 8.58293C6.91937 9.51173 6.91937 10.4405 6.91937 11.3693C6.91937 11.4148 6.92316 11.4603 6.92695 11.5248C6.98761 11.5248 7.03689 11.5248 7.08618 11.5248C7.32122 11.5248 7.56006 11.5248 7.7951 11.5248C8.06806 11.5286 8.26519 11.6461 8.3865 11.8925C8.67841 12.4763 8.97412 13.0602 9.25844 13.6478C9.31152 13.7539 9.33427 13.8866 9.33048 14.0041C9.3191 14.3036 9.12197 14.4666 8.84901 14.5576ZM9.88776 4.78809C9.94842 4.78051 9.98633 4.77672 10.0204 4.76914C10.6611 4.59096 11.0971 4.17015 11.3587 3.57496C11.5444 3.14657 11.2942 2.63857 10.8507 2.47934C10.7597 2.44902 10.6953 2.45281 10.6232 2.52105C10.3541 2.77505 10.1493 3.07454 10.0773 3.4309C9.99012 3.87066 9.95221 4.32179 9.88776 4.78809ZM2.72268 4.78809C2.69994 4.46206 2.68856 4.15499 2.65065 3.84791C2.59 3.32854 2.39286 2.87361 2.00238 2.50967C1.93794 2.44902 1.88107 2.44143 1.79767 2.46797C1.32379 2.62719 1.08116 3.16552 1.29346 3.62045C1.43752 3.92752 1.63844 4.19669 1.90761 4.40899C2.14644 4.60233 2.41561 4.73123 2.72268 4.78809Z" fill="white"/>
</g>
</svg>
