<svg width="18" height="19" viewBox="0 0 18 19" fill="none" xmlns="http://www.w3.org/2000/svg">
<path id="Vector" d="M9 12.5981L12 9.59814M12 9.59814L9 6.59814M12 9.59814L1 9.59815M6 14.5981C6 15.53 6 15.996 6.15224 16.3635C6.35523 16.8536 6.74432 17.2429 7.23438 17.4459C7.60192 17.5982 8.06812 17.5981 9 17.5981H13.8C14.9201 17.5981 15.48 17.5981 15.9078 17.3801C16.2841 17.1884 16.5905 16.8825 16.7822 16.5062C17.0002 16.0784 17 15.5182 17 14.3981V4.7981C17 3.67799 17.0002 3.11801 16.7822 2.69019C16.5905 2.31386 16.2841 2.00788 15.9078 1.81613C15.48 1.59814 14.9201 1.59814 13.8 1.59814H9C8.06812 1.59814 7.60192 1.59814 7.23438 1.75039C6.74432 1.95337 6.35523 2.34271 6.15224 2.83276C6 3.20031 6 3.66625 6 4.59813" stroke="#0B0E52" stroke-width="2" stroke-linecap="round" stroke-linejoin="round"/>
</svg>
