<svg width="38" height="39" viewBox="0 0 38 39" fill="none" xmlns="http://www.w3.org/2000/svg">
<path id="Vector" d="M19 0.598145C8.49958 0.598145 0 9.09772 0 19.5981C0 30.0986 8.49958 38.5981 19 38.5981C29.5004 38.5981 38 30.0986 38 19.5981C38 9.09772 29.4844 0.598145 19 0.598145ZM24.5864 12.123C24.5864 12.123 22.6976 12.123 21.9452 12.123C21.0168 12.123 20.8248 12.5072 20.8248 13.4676C20.8248 14.2679 20.8248 15.7885 20.8248 15.7885H24.5864L24.2182 19.8703H20.8088V32.0834H15.9267V19.9183H13.3816V15.7725H15.9267C15.9267 15.7725 15.9267 15.1803 15.9267 12.5072C15.9267 9.44987 17.5754 7.8492 21.1929 7.8492C21.7852 7.8492 24.5703 7.8492 24.5703 7.8492L24.5864 12.123Z" fill="white"/>
</svg>
