<svg width="111" height="62" viewBox="0 0 111 62" fill="none" xmlns="http://www.w3.org/2000/svg">
<g id="Group">
<g id="Group_2">
<path id="Vector" d="M33.469 32.2551L36.2342 35.8276L31.6129 57.6438L27.315 61.1951H16.8008L22.9761 32.2534H33.4706L33.469 32.2551ZM26.1827 55.1609L29.775 38.2892L29.2498 37.6837H27.7565L24.1642 54.6161L21.3596 55.6253L21.3186 55.7861H25.395L26.1827 55.1609Z" fill="white"/>
<path id="Vector_2" d="M51.8129 35.8279L49.4515 46.9691L47.2722 48.8054L46.9702 61.197H41.0164L41.5613 50.5416H40.6127L38.3317 61.197H32.3779L38.5532 32.2554H49.0478L51.8129 35.8279ZM39.1194 45.3329L39.0784 45.4938H43.1744L43.9621 44.8685L45.3554 38.2895L44.8303 37.684H43.3369L41.9436 44.2827L39.1177 45.3329H39.1194Z" fill="white"/>
<path id="Vector_3" d="M64.2253 32.2554L66.9904 35.8279L62.3479 57.6441L58.0483 61.1954H51.105L48.3398 57.6441L52.9824 35.8279L57.2803 32.2554H64.2236H64.2253ZM60.4919 38.2895L60.0077 37.684H59.1807L58.3929 38.2895L54.8007 55.1612L55.2848 55.7865H56.1529L56.9406 55.1612L60.4919 38.2895Z" fill="white"/>
<path id="Vector_4" d="M63.1152 61.197L69.2905 32.2554H75.8088L75.648 43.4162L75.2853 47.5139H75.9319L76.3159 43.4162L78.7167 32.2554H84.6508L78.4952 61.197H71.9769L72.0984 50.0362L72.5021 45.9401H71.8555L71.4321 50.0362L69.0706 61.197H63.1169H63.1152Z" fill="white"/>
<path id="Vector_5" d="M90.0589 42.7299L87.2133 43.7589L87.1723 43.9197H93.4887L92.3794 49.1268H88.646L87.4956 54.6161L84.691 55.6253L84.65 55.7861H91.4309L90.2608 61.1951H80.1289L86.3042 32.2534H96.4147L95.2644 37.682H91.0862L90.0573 42.7266L90.0589 42.7299Z" fill="white"/>
<path id="Vector_6" d="M94.7212 61.1969L91.9561 57.6456L93.369 50.9862H99.3031L98.4349 55.2037L98.8994 55.7896H99.8069L100.554 55.2037L101.422 51.0666L94.7212 44.8306L96.6593 35.8294L100.957 32.2568H107.738L110.503 35.8294L109.192 41.985H103.238L104.065 38.2106L103.601 37.6854H102.774L102.088 38.2106L101.341 41.8636L108.001 48.0996L105.962 57.6456L101.665 61.1969H94.7212Z" fill="white"/>
</g>
<g id="Group_3">
<path id="Vector_7" d="M17.3574 9.73013H11.4037L12.1504 6.03612L11.6663 5.43057H10.8392L10.0515 6.03612L6.45919 22.9078L6.9433 23.533H7.97224L8.71893 22.9078L10.0515 16.7112H8.84036L9.89064 11.8274H16.8733L13.2811 28.942H9.22437L9.50663 27.4896L9.97105 26.5411H9.46725L9.02252 27.4896L7.28628 28.942H2.76518L0 25.3907L4.64254 3.57453L8.94047 0.00195312H15.8838L18.6489 3.57453L17.3574 9.73013Z" fill="white"/>
<path id="Vector_8" d="M23.3909 0.00146484H32.4528L29.4661 28.9431H23.1496L24.1786 22.2427H21.8778L20.1022 28.9431H14.1074L23.3909 0.00146484ZM20.5453 17.1964L20.5043 17.3786H24.9236L26.3366 8.3971L26.8207 5.95521H26.2151L25.6703 8.3971L23.4713 16.2069L20.5453 17.1964Z" fill="white"/>
<path id="Vector_9" d="M30.333 28.9431L36.5083 0.00146484H47.0439L44.2393 17.9021L43.1496 22.9877H43.8159L44.8859 17.9021L49.7303 0.00146484H60.023L53.8674 28.9431H47.9136L52.1722 9.1044L52.6563 6.66251H52.0097L51.5059 9.1044L45.8344 28.9431H38.3676L41.1722 9.1044L41.676 6.66251H41.0097L40.5453 9.1044L36.2868 28.9431H30.333Z" fill="white"/>
<path id="Vector_10" d="M65.4691 10.4765L62.6235 11.5054L62.5825 11.6663H68.8989L67.7895 16.8733H64.0561L62.9058 22.3627L60.1012 23.3719L60.0602 23.5327H66.841L65.6709 28.9417H55.5391L61.7144 0H71.8249L70.6745 5.42861H66.4964L65.4674 10.4732L65.4691 10.4765Z" fill="white"/>
</g>
<g id="Group_4">
<path id="Vector_11" d="M84.6443 15.6899L85.9112 17.3261L83.786 27.3168L81.8167 28.9431H78.638L77.3711 27.3168L79.4963 17.3261L81.4655 15.6899H84.6443ZM82.9343 18.4535L82.7127 18.1761H82.3337L81.9726 18.4535L80.3283 26.1796L80.5498 26.4668H80.947L81.308 26.1796L82.9343 18.4535Z" fill="white"/>
<path id="Vector_12" d="M88.6824 20.4867L87.3794 20.9577L87.3614 21.0316H90.2546L89.7458 23.416H88.0359L86.8625 28.9431H84.1367L86.9643 15.6899H91.5937L91.0669 18.1761H89.1534L88.6824 20.4867Z" fill="white"/>
</g>
</g>
</svg>
