<svg width="38" height="39" viewBox="0 0 38 39" fill="none" xmlns="http://www.w3.org/2000/svg">
<g id="Group 178">
<path id="Vector" d="M19.0161 23.648C21.0406 23.648 22.6817 22.0069 22.6817 19.9824C22.6817 17.958 21.0406 16.3169 19.0161 16.3169C16.9917 16.3169 15.3506 17.958 15.3506 19.9824C15.3506 22.0069 16.9917 23.648 19.0161 23.648Z" fill="white"/>
<path id="Vector_2" d="M27.5795 13.5154C27.3874 13.0032 27.1313 12.635 26.7632 12.2509C26.379 11.8667 26.0109 11.6266 25.4986 11.4345C25.1145 11.2905 24.5382 11.1144 23.4658 11.0504C22.3133 11.0023 21.9612 10.9863 19.0319 10.9863C16.1027 10.9863 15.7505 10.9863 14.5981 11.0504C13.5256 11.0984 12.9494 11.2744 12.5652 11.4345C12.053 11.6266 11.6848 11.8827 11.3007 12.2509C10.9165 12.635 10.6764 13.0032 10.4843 13.5154C10.3403 13.8996 10.1642 14.4758 10.1002 15.5482C10.0521 16.7007 10.0361 17.0529 10.0361 19.9821C10.0361 22.9113 10.0361 23.2635 10.1002 24.416C10.1482 25.4884 10.3243 26.0647 10.4843 26.4488C10.6764 26.9611 10.9325 27.3292 11.3007 27.7134C11.6848 28.0975 12.053 28.3376 12.5652 28.5297C12.9494 28.6738 13.5256 28.8498 14.5981 28.9139C15.7505 28.9619 16.1027 28.9779 19.0319 28.9779C21.9612 28.9779 22.3133 28.9779 23.4658 28.9139C24.5382 28.8659 25.1145 28.6898 25.4986 28.5297C26.0109 28.3376 26.379 28.0815 26.7632 27.7134C27.1473 27.3292 27.3874 26.9611 27.5795 26.4488C27.7236 26.0647 27.8997 25.4884 27.9637 24.416C28.0117 23.2635 28.0277 22.9113 28.0277 19.9821C28.0277 17.0529 28.0277 16.7007 27.9637 15.5482C27.9157 14.4758 27.7236 13.8996 27.5795 13.5154ZM19.0159 25.6325C15.8946 25.6325 13.3815 23.1034 13.3815 19.9981C13.3815 16.8928 15.9106 14.3637 19.0159 14.3637C22.1372 14.3637 24.6503 16.8928 24.6503 19.9981C24.6503 23.1034 22.1212 25.6325 19.0159 25.6325ZM24.8744 15.4362C24.1381 15.4362 23.5618 14.844 23.5618 14.1236C23.5618 13.3873 24.1541 12.8111 24.8744 12.8111C25.6107 12.8111 26.1869 13.4033 26.1869 14.1236C26.2029 14.86 25.6107 15.4362 24.8744 15.4362Z" fill="white"/>
<path id="Vector_3" d="M19 0.598145C8.49958 0.598145 0 9.09772 0 19.5981C0 30.0986 8.49958 38.5981 19 38.5981C29.5004 38.5981 38 30.0986 38 19.5981C38 9.09772 29.4844 0.598145 19 0.598145ZM29.9326 24.5122C29.8846 25.6807 29.6925 26.481 29.4204 27.1853C29.1323 27.9056 28.7641 28.5299 28.1559 29.1382C27.5476 29.7464 26.9393 30.1306 26.203 30.4027C25.4987 30.6748 24.6984 30.8509 23.5299 30.9149C22.3614 30.9629 21.9933 30.9789 19 30.9789C16.0067 30.9789 15.6386 30.9629 14.4701 30.9149C13.3016 30.8669 12.5013 30.6748 11.797 30.4027C11.0767 30.1146 10.4524 29.7464 9.84414 29.1382C9.23589 28.5299 8.85173 27.9216 8.57961 27.1853C8.3075 26.481 8.13142 25.6807 8.0674 24.5122C8.01937 23.3437 8.00337 22.9756 8.00337 19.9823C8.00337 16.989 8.01937 16.6209 8.0674 15.4524C8.11542 14.2839 8.3075 13.4836 8.57961 12.7793C8.86773 12.059 9.23589 11.4347 9.84414 10.8265C10.4524 10.2182 11.0607 9.83403 11.797 9.56192C12.5013 9.2898 13.3016 9.11373 14.4701 9.0497C15.6386 9.00168 16.0067 8.98568 19 8.98568C21.9933 8.98568 22.3614 9.00168 23.5299 9.0497C24.6984 9.09772 25.4987 9.2898 26.203 9.56192C26.9233 9.85004 27.5476 10.2182 28.1559 10.8265C28.7641 11.4347 29.1483 12.043 29.4204 12.7793C29.6925 13.4836 29.8686 14.2839 29.9326 15.4524C29.9966 16.6209 29.9966 16.989 29.9966 19.9823C29.9966 22.9756 29.9806 23.3437 29.9326 24.5122Z" fill="white"/>
</g>
</svg>
