<svg width="15" height="18" viewBox="0 0 15 18" fill="none" xmlns="http://www.w3.org/2000/svg">
<path id="Vector" d="M1 14.0301V9.3634C1 8.42998 1 7.96333 1.17711 7.60681C1.33291 7.29321 1.58132 7.03822 1.88708 6.87843C2.23469 6.69678 2.69007 6.69678 3.60016 6.69678H11.4002C12.3102 6.69678 12.765 6.69678 13.1126 6.87843C13.4183 7.03822 13.6673 7.29321 13.8231 7.60681C14.0002 7.96333 14 8.42998 14 9.3634V14.0301C14 14.9635 14.0002 15.4303 13.8231 15.7868C13.6673 16.1004 13.4183 16.3553 13.1126 16.5151C12.765 16.6968 12.3102 16.6968 11.4002 16.6968H3.60016C2.69007 16.6968 2.23469 16.6968 1.88708 16.5151C1.58132 16.3553 1.33291 16.1004 1.17711 15.7868C1 15.4303 1 14.9635 1 14.0301ZM5.0625 6.50447V4.19678C5.0625 2.81607 6.15381 1.69678 7.5 1.69678C8.84619 1.69678 9.9375 2.81607 9.9375 4.19678V6.50447C9.9375 6.61068 9.85331 6.69678 9.74976 6.69678H5.24976C5.1462 6.69678 5.0625 6.61068 5.0625 6.50447Z" stroke="white" stroke-width="2" stroke-linecap="round" stroke-linejoin="round"/>
</svg>
