<svg xmlns="http://www.w3.org/2000/svg" width="337" height="129" viewBox="0 0 337 129" fill="none">
  <path fill-rule="evenodd" clip-rule="evenodd" d="M318.101 0.000120787H18.0001L17.7687 6.1659e-05L17.7687 6.1642e-05C16.5775 -0.000393257 15.155 -0.000936525 13.9018 0.101452C12.4496 0.2201 10.3697 0.524534 8.19026 1.63502C5.36783 3.07312 3.07312 5.36783 1.63502 8.19026C0.524535 10.3697 0.2201 12.4496 0.101452 13.9018C-0.000936526 15.155 -0.000393257 16.5775 6.16421e-05 17.7687L6.1659e-05 17.7687L0.000120787 18.0001V110.683L6.1659e-05 110.914L6.1642e-05 110.914C-0.000393257 112.105 -0.000936525 113.528 0.101452 114.781C0.2201 116.233 0.524534 118.313 1.63502 120.493C3.07312 123.315 5.36783 125.61 8.19026 127.048C10.3697 128.158 12.4496 128.463 13.9018 128.582C15.155 128.684 16.5776 128.683 17.7688 128.683L18.0001 128.683H318.101L318.333 128.683C319.524 128.683 320.946 128.684 322.2 128.582C323.652 128.463 325.732 128.158 327.911 127.048C330.734 125.61 333.028 123.315 334.466 120.493C335.577 118.313 335.881 116.233 336 114.781C336.102 113.528 336.102 112.106 336.101 110.914L336.101 110.683V18.0001L336.101 17.7686C336.102 16.5775 336.102 15.155 336 13.9018C335.881 12.4496 335.577 10.3697 334.466 8.19026C333.028 5.36783 330.734 3.07312 327.911 1.63502C325.732 0.524535 323.652 0.2201 322.2 0.101452C320.946 -0.000937792 319.524 -0.000393244 318.333 6.1659e-05L318.101 0.000120787ZM10.0001 18.0001C10.0001 15.1999 10.0001 13.7997 10.5451 12.7302C11.0245 11.7894 11.7894 11.0245 12.7302 10.5451C13.7997 10.0001 15.1999 10.0001 18.0001 10.0001H318.101C320.902 10.0001 322.302 10.0001 323.371 10.5451C324.312 11.0245 325.077 11.7894 325.556 12.7302C326.101 13.7997 326.101 15.1999 326.101 18.0001V110.683C326.101 113.483 326.101 114.883 325.556 115.953C325.077 116.894 324.312 117.659 323.371 118.138C322.302 118.683 320.902 118.683 318.101 118.683H277.129V72.1573V71.9977C277.129 70.7358 277.129 69.5069 277.044 68.4661C276.95 67.3232 276.73 65.9745 276.039 64.6174C275.08 62.7358 273.55 61.2059 271.668 60.2472C270.311 59.5557 268.963 59.3354 267.82 59.242C266.779 59.157 265.55 59.1571 264.288 59.1573L264.129 59.1573H63.7891C61.0277 59.1573 58.7891 61.3958 58.7891 64.1573C58.7891 66.9187 61.0277 69.1573 63.7891 69.1573H264.129C265.611 69.1573 266.422 69.1612 267.005 69.2088C267.018 69.2099 267.031 69.2109 267.044 69.212L267.071 69.2145L267.074 69.2452C267.075 69.2566 267.076 69.2684 267.077 69.2804C267.125 69.8634 267.129 70.6746 267.129 72.1573V118.683H18.0001C15.1999 118.683 13.7997 118.683 12.7302 118.138C11.7894 117.659 11.0245 116.894 10.5451 115.953C10.0001 114.883 10.0001 113.483 10.0001 110.683V18.0001ZM45.6316 32.8155L45.4721 32.8155C44.2102 32.8153 42.9812 32.8152 41.9404 32.9002C40.7975 32.9936 39.4488 33.214 38.0917 33.9054C36.2101 34.8642 34.6803 36.394 33.7215 38.2756C33.03 39.6327 32.8097 40.9814 32.7163 42.1244C32.6313 43.1652 32.6314 44.3941 32.6316 45.656L32.6316 45.8155V84.7095L32.6316 84.869C32.6314 86.1309 32.6313 87.3599 32.7163 88.4007C32.8097 89.5436 33.03 90.8923 33.7215 92.2494C34.6803 94.1311 36.2101 95.6609 38.0917 96.6196C39.4488 97.3111 40.7975 97.5314 41.9404 97.6248C42.9811 97.7098 44.2099 97.7097 45.4717 97.7095H45.4722L45.6316 97.7095H198.629C201.391 97.7095 203.629 95.4709 203.629 92.7095C203.629 89.9481 201.391 87.7095 198.629 87.7095H45.6316C44.149 87.7095 43.3377 87.7056 42.7548 87.658C42.7316 87.6561 42.7096 87.6542 42.6888 87.6523C42.6869 87.6315 42.685 87.6096 42.6831 87.5864C42.6355 87.0034 42.6316 86.1922 42.6316 84.7095V45.8155C42.6316 44.3329 42.6355 43.5216 42.6831 42.9387C42.685 42.9155 42.6869 42.8935 42.6888 42.8728C42.7096 42.8708 42.7316 42.8689 42.7548 42.867C43.3377 42.8194 44.149 42.8155 45.6316 42.8155H289.918C291.4 42.8155 292.212 42.8194 292.794 42.867C292.818 42.8689 292.84 42.8708 292.86 42.8728C292.862 42.8935 292.864 42.9155 292.866 42.9387C292.914 43.5216 292.918 44.3329 292.918 45.8155V92.7095C292.918 95.4709 295.156 97.7095 297.918 97.7095C300.679 97.7095 302.918 95.4709 302.918 92.7095V45.8155V45.6565C302.918 44.3944 302.918 43.1653 302.833 42.1243C302.74 40.9814 302.519 39.6327 301.828 38.2756C300.869 36.3939 299.339 34.8641 297.458 33.9055L295.389 37.9649L297.458 33.9054C296.1 33.214 294.752 32.9936 293.609 32.9002C292.568 32.8152 291.339 32.8153 290.077 32.8155L289.918 32.8155H45.6316Z" fill="white"/>
</svg>