<svg width="429" height="33" viewBox="0 0 429 33" fill="none" xmlns="http://www.w3.org/2000/svg">
<path fill-rule="evenodd" clip-rule="evenodd" d="M16.5007 26.7002H10.7888L6.50559 10.409C6.30231 9.65961 5.87063 8.9971 5.23567 8.68485C3.65104 7.90016 1.90489 7.27566 0 6.9607V6.33349H9.20141C10.4713 6.33349 11.4238 7.27566 11.5825 8.36989L13.8049 20.1213L19.514 6.33349H25.0671L16.5007 26.7002ZM28.2419 26.7002H22.8475L27.2895 6.33349H32.6839L28.2419 26.7002ZM39.6631 11.9772C39.8218 10.8802 40.7743 10.253 41.8855 10.253C43.6316 10.0955 45.5336 10.4105 47.121 11.1925L48.0738 6.8074C46.4864 6.18019 44.74 5.86523 43.1554 5.86523C37.9197 5.86523 34.11 8.68632 34.11 12.6017C34.11 15.5802 36.8085 17.1442 38.7134 18.0864C40.7743 19.0258 41.568 19.653 41.4093 20.5925C41.4093 22.0017 39.8218 22.6289 38.2372 22.6289C36.3323 22.6289 34.4274 22.1592 32.6841 21.3745L31.7316 25.7622C33.6365 26.5442 35.6974 26.8592 37.6022 26.8592C43.4729 27.014 47.121 24.1956 47.121 19.9653C47.121 14.638 39.6631 14.3258 39.6631 11.9772ZM66 26.7002L61.7166 6.33349H57.1157C56.1634 6.33349 55.2112 6.9607 54.8936 7.90016L46.962 26.7002H52.5152L53.6238 23.7244H60.4468L61.0815 26.7002H66ZM57.9094 11.8177L59.4941 19.4935H55.0522L57.9094 11.8177Z" fill="#15195A"/>
<mask id="mask0_566_8577" style="mask-type:luminance" maskUnits="userSpaceOnUse" x="86" y="0" width="110" height="33">
<path d="M195.356 0H86V32.7294H195.356V0Z" fill="white"/>
</mask>
<g mask="url(#mask0_566_8577)">
<path d="M145.201 16.0767C146.332 16.0767 147.116 15.5543 147.116 14.3734C147.116 13.1925 146.332 12.6702 145.201 12.6702H143.013V16.0754L145.201 16.0767ZM141.869 11.7373H145.326C146.868 11.7373 148.26 12.471 148.26 14.3715C148.26 16.261 146.917 16.9575 145.35 16.9575H143.013V20.4411H141.869V11.7373Z" fill="#0B1E46"/>
<path d="M150.92 19.8068C152.226 19.8068 152.997 18.8996 152.997 17.6436V17.2459L151.181 17.4329C150.136 17.5318 149.575 17.9545 149.575 18.7011C149.577 19.3102 149.974 19.8068 150.92 19.8068ZM151.056 16.7364L152.996 16.5494V15.9314C152.996 15.1732 152.523 14.5635 151.454 14.5757C150.571 14.5757 149.876 14.9612 149.825 15.844H148.818C148.868 14.3662 150.012 13.7803 151.452 13.7803C153.168 13.7803 154.075 14.6155 154.075 16.1428V20.4442H153.084V19.1014C152.686 20.0214 151.828 20.5932 150.598 20.5932C149.13 20.5932 148.496 19.7728 148.496 18.7409C148.495 17.5318 149.378 16.8983 151.056 16.7364Z" fill="#0B1E46"/>
<path d="M161.414 13.9262H162.421V15.1604C162.781 14.277 163.54 13.7803 164.547 13.7803C165.541 13.7803 166.262 14.2526 166.499 15.1976C166.859 14.2898 167.642 13.7803 168.662 13.7803C169.918 13.7803 170.726 14.5635 170.726 16.0431V20.4442H169.633V16.3258C169.633 15.3063 169.184 14.6721 168.291 14.6721C167.271 14.6721 166.612 15.4803 166.612 16.8231V20.4416H165.529V16.3265C165.529 15.3069 165.068 14.6727 164.173 14.6727C163.154 14.6727 162.508 15.481 162.508 16.8237V20.4423H161.415L161.414 13.9262Z" fill="#0B1E46"/>
<path d="M176.714 16.7729C176.69 15.4173 175.968 14.5717 174.862 14.5717C173.792 14.5717 172.999 15.3183 172.897 16.7729H176.714ZM174.863 13.7764C176.726 13.7764 177.797 14.9078 177.797 17.3447V17.4937H172.886C172.973 19.0107 173.781 19.7939 174.95 19.7939C175.82 19.7939 176.405 19.3441 176.679 18.6747L177.71 18.7389C177.374 19.8703 176.417 20.5912 174.947 20.5912C173.07 20.5912 171.789 19.4842 171.789 17.186C171.791 14.8956 173.084 13.7764 174.863 13.7764Z" fill="#0B1E46"/>
<path d="M178.945 13.9254H179.952V15.1815C180.325 14.2987 181.133 13.7764 182.277 13.7764C183.694 13.7764 184.502 14.5473 184.502 16.1387V20.4402H183.41V16.4864C183.41 15.3054 182.95 14.6713 181.906 14.6713C180.685 14.6713 180.042 15.5168 180.042 16.8224V20.4408H178.951V13.9254H178.945Z" fill="#0B1E46"/>
<path d="M187.643 14.7589V18.565C187.643 19.3854 187.818 19.6469 188.478 19.6469C188.733 19.6426 188.986 19.6211 189.237 19.5827V20.4526C188.922 20.5136 188.601 20.543 188.28 20.54C187.012 20.54 186.552 20.0421 186.552 18.7372V14.7589H185.182V13.9507H186.226C186.512 13.9507 186.624 13.8389 186.624 13.5652V12.4961H187.643V13.9256H189.235V14.7608L187.643 14.7589Z" fill="#0B1E46"/>
<path d="M190.99 18.5388C191.076 19.4087 191.723 19.7948 192.755 19.7948C193.725 19.7948 194.371 19.4466 194.371 18.7875C194.371 18.303 194.01 18.0165 193.115 17.7434L191.71 17.3328C190.703 17.0347 190.193 16.4257 190.193 15.5423C190.193 14.2868 191.226 13.7773 192.58 13.7773C194.023 13.7773 195.167 14.3613 195.291 15.7048L194.296 15.7691C194.184 14.9486 193.476 14.5753 192.58 14.5753C191.785 14.5509 191.263 14.8965 191.263 15.5082C191.263 16.0305 191.635 16.3287 192.319 16.5278L193.736 16.9384C194.829 17.2493 195.452 17.7961 195.452 18.7412C195.452 19.9471 194.42 20.5934 192.729 20.5934C191.138 20.5934 190.106 19.9844 189.994 18.5915L190.99 18.5388Z" fill="#0B1E46"/>
<path d="M160.422 13.9395L157.997 21.1996C157.547 22.6169 157.076 23.0898 155.808 23.0898C155.61 23.0898 155.359 23.0776 155.088 23.0525V22.207C155.312 22.2192 155.548 22.2321 155.747 22.2321C156.418 22.2321 156.703 21.9834 157.002 21.0383L157.189 20.4543L154.727 13.9395H155.92L157.728 19.0794L159.251 13.9395H160.42H160.422Z" fill="#0B1E46"/>
<path d="M106.889 16.3027C106.889 13.8671 108.698 12.0225 111.169 12.0225C113.144 12.0225 114.681 13.24 115.166 15.0017H113.357C112.967 14.1504 112.174 13.6306 111.157 13.6306C109.632 13.6306 108.591 14.7537 108.591 16.3027C108.591 17.8518 109.632 18.9749 111.157 18.9749C112.174 18.9749 112.967 18.4551 113.357 17.6038H115.166C114.681 19.3648 113.144 20.583 111.169 20.583C108.698 20.5823 106.889 18.7384 106.889 16.3027Z" fill="#0B1E46"/>
<path d="M117.722 11.7373H116.031V20.4411H117.722V11.7373Z" fill="#0B1E46"/>
<path d="M120.393 17.1895C120.393 18.2656 121.126 18.9749 122.072 18.9749C123.018 18.9749 123.752 18.2682 123.752 17.1895C123.752 16.1255 123.018 15.404 122.072 15.404C121.126 15.404 120.393 16.1236 120.393 17.1895ZM125.468 17.1895C125.468 19.1523 123.978 20.583 122.075 20.583C120.183 20.583 118.693 19.1407 118.693 17.1895C118.693 15.2273 120.207 13.7959 122.075 13.7959C123.951 13.7959 125.465 15.2241 125.465 17.1895H125.468Z" fill="#0B1E46"/>
<path d="M132.45 13.9395V20.4415H130.759V19.542C130.286 20.2037 129.647 20.5822 128.749 20.5822C127.318 20.5822 126.432 19.6011 126.432 18.0167V13.9395H128.123V17.6525C128.123 18.5037 128.444 18.9766 129.317 18.9766C130.251 18.9766 130.759 18.4209 130.759 17.3569V13.9395H132.45Z" fill="#0B1E46"/>
<path d="M138.4 17.1894C138.4 16.1255 137.679 15.4039 136.733 15.4039C135.788 15.4039 135.093 16.1235 135.093 17.1894C135.093 18.2656 135.799 18.9749 136.736 18.9749C137.679 18.9749 138.4 18.2656 138.4 17.1894ZM140.091 11.7373V20.4411H138.4V19.566C137.95 20.1808 137.265 20.583 136.354 20.583C134.663 20.583 133.387 19.1875 133.387 17.1894C133.387 15.1791 134.676 13.7958 136.342 13.7958C136.745 13.7879 137.144 13.8799 137.502 14.0635C137.861 14.2472 138.169 14.5168 138.398 14.8482V11.7373H140.091Z" fill="#0B1E46"/>
<path d="M100.597 22.192C103.936 18.8526 103.937 13.4386 100.597 10.0992C97.2579 6.7599 91.8438 6.7599 88.5045 10.0993C85.1652 13.4386 85.1652 18.8526 88.5045 22.192C91.8438 25.5313 97.2579 25.5313 100.597 22.192Z" fill="#6496DC"/>
<path d="M92.7109 18.5362L98.2485 12.9986C98.3853 12.8615 98.5478 12.7529 98.7267 12.6787C98.9055 12.6045 99.0973 12.5664 99.2909 12.5664C99.4846 12.5664 99.6763 12.6045 99.8552 12.6787C100.034 12.7529 100.196 12.8615 100.333 12.9986H100.337C100.612 13.2755 100.767 13.6505 100.767 14.0413C100.767 14.4322 100.612 14.8071 100.337 15.0841L96.8871 18.5362C96.333 19.0894 95.582 19.4 94.799 19.4C94.016 19.4 93.2651 19.0894 92.7109 18.5362Z" fill="white"/>
<path d="M96.3874 13.7549L90.8498 19.2925C90.7129 19.4296 90.5503 19.5383 90.3714 19.6124C90.1925 19.6866 90.0008 19.7248 89.807 19.7248C89.6134 19.7248 89.4216 19.6866 89.2427 19.6124C89.0637 19.5383 88.9012 19.4296 88.7643 19.2925C88.6273 19.1556 88.5185 18.993 88.4444 18.8141C88.3702 18.6352 88.332 18.4435 88.332 18.2497C88.332 18.0561 88.3702 17.8643 88.4444 17.6854C88.5185 17.5064 88.6273 17.3439 88.7643 17.207L92.2138 13.7575C92.7675 13.2048 93.5177 12.8941 94.3 12.8936C95.0824 12.8931 95.8331 13.2029 96.3874 13.7549Z" fill="white"/>
</g>
<path d="M240.626 6.69531H229.891V26.037H240.626V6.69531Z" fill="#FF5F00"/>
<path d="M230.574 16.3653C230.572 14.5043 230.993 12.6671 231.804 10.9923C232.616 9.31744 233.796 7.84854 235.258 6.69624C233.716 5.48376 231.906 4.65771 229.98 4.28702C228.053 3.91634 226.066 4.01179 224.184 4.56539C222.302 5.11899 220.58 6.1147 219.161 7.4694C217.743 8.82411 216.668 10.4984 216.028 12.3528C215.388 14.2072 215.201 16.1877 215.483 18.1291C215.764 20.0706 216.505 21.9165 217.645 23.513C218.785 25.1095 220.291 26.4101 222.036 27.3064C223.781 28.2027 225.715 28.6686 227.676 28.6653C230.428 28.6689 233.1 27.7417 235.258 26.0345C233.796 24.8822 232.616 23.4132 231.804 21.7384C230.993 20.0636 230.572 18.2264 230.574 16.3653Z" fill="#EB001B"/>
<path d="M253.934 23.9861V23.5898H254.095V23.5078H253.678V23.5898H253.838V23.9861H253.934ZM254.723 23.9861V23.5078H254.6L254.457 23.8494L254.313 23.5078H254.187V23.9861H254.276V23.6239L254.409 23.9349H254.501L254.634 23.6239V23.9861H254.723Z" fill="#F79E1B"/>
<path d="M255.105 16.3646C255.113 18.6697 254.471 20.9303 253.252 22.8869C252.033 24.8435 250.288 26.4169 248.215 27.4264C246.143 28.436 243.828 28.8408 241.536 28.5945C239.244 28.3482 237.068 27.4606 235.258 26.0337C236.718 24.8804 237.898 23.4114 238.71 21.7367C239.521 20.0621 239.943 18.2254 239.943 16.3646C239.943 14.5037 239.521 12.667 238.71 10.9924C237.898 9.31782 236.718 7.84873 235.258 6.69548C237.068 5.26858 239.244 4.38102 241.536 4.13467C243.828 3.88832 246.143 4.29316 248.215 5.30273C250.288 6.31229 252.033 7.88567 253.252 9.84231C254.471 11.7989 255.113 14.0595 255.105 16.3646Z" fill="#F79E1B"/>
<path d="M318.768 10.0374H330.079V6.2573H316.408C314.208 6.2573 312.425 8.0409 312.425 10.2408V17.8512L303.519 6.75272C303.267 6.4385 302.886 6.2555 302.483 6.25586L297.775 6.2573V26.4744H303.122V12.2991L313.324 25.0123C314.055 25.9046 315.165 26.4744 316.408 26.4744H330.079V22.6944H318.768C318.218 22.6944 317.772 22.2486 317.772 21.6985V18.2561H328.544V14.476H317.772V11.0332C317.772 10.4832 318.218 10.0374 318.768 10.0374Z" fill="#19226D"/>
<path d="M289.755 21.4198V21.5319C289.755 22.1737 289.235 22.6939 288.593 22.6939H281.614C280.973 22.6939 280.453 22.1737 280.453 21.5319V11.1985C280.453 10.5571 280.973 10.0369 281.614 10.0369H283.56L285.742 6.25684H279.753C277.186 6.25684 275.105 8.3374 275.105 10.9041V21.8268C275.105 24.3934 277.186 26.474 279.753 26.474H290.455C293.021 26.474 295.102 24.3934 295.102 21.8268V21.4198H289.755Z" fill="#19226D"/>
<path d="M285.104 10.0369H288.592C289.234 10.0369 289.755 10.5571 289.755 11.1989V20.0831H295.102V10.904C295.102 8.33741 293.02 6.25684 290.454 6.25684H287.286L285.104 10.0369Z" fill="#00C2F3"/>
<path d="M332.754 26.4734V25.3776L335.885 24.3756V24.2502L332.754 23.2482V22.1523L337.138 23.5926V25.0332L332.754 26.4734Z" fill="#19226D"/>
<path d="M332.754 20.8857H337.138V21.8877H332.754V20.8857Z" fill="#19226D"/>
<path d="M335.697 19.39C336.048 19.39 336.324 19.1081 336.324 18.576C336.324 18.0436 336.104 17.8242 335.854 17.8242C335.635 17.8242 335.478 17.9745 335.384 18.4505L335.259 19.1394C335.115 19.9224 334.733 20.2981 334.038 20.2981C333.286 20.2981 332.691 19.7092 332.691 18.6386C332.691 17.4798 333.318 16.8535 334.194 16.8535V17.8555C333.85 17.8555 333.568 18.1439 333.568 18.6386C333.568 19.0833 333.787 19.2961 334.038 19.2961C334.257 19.2961 334.37 19.1707 334.445 18.7637L334.57 18.0748C334.727 17.1979 335.102 16.8223 335.854 16.8223C336.606 16.8223 337.2 17.4172 337.2 18.576C337.2 19.7283 336.543 20.392 335.697 20.392V19.39Z" fill="#19226D"/>
<path d="M332.754 15.2656H337.138V16.2676H332.754V15.2656Z" fill="#19226D"/>
<path d="M334.946 11.4981C334.163 11.4981 333.662 11.9993 333.662 12.6252C333.662 13.2515 334.163 13.7526 334.946 13.7526C335.729 13.7526 336.23 13.2515 336.23 12.6252C336.23 11.9993 335.729 11.4981 334.946 11.4981ZM334.946 14.7546C333.624 14.7546 332.691 13.8091 332.691 12.6252C332.691 11.4416 333.624 10.4961 334.946 10.4961C336.267 10.4961 337.2 11.4416 337.2 12.6252C337.2 13.8091 336.267 14.7546 334.946 14.7546Z" fill="#19226D"/>
<path d="M332.754 9.98332V8.76201L335.384 7.38431V7.2592H332.754V6.25684H337.138V7.47815L334.507 8.85583V8.98133H337.138V9.98332H332.754Z" fill="#19226D"/>
</svg>
