<svg width="53" height="56" viewBox="0 0 53 56" fill="none" xmlns="http://www.w3.org/2000/svg">
<path id="Vector" d="M2 46.917V9.08268C2 5.96288 2 4.40299 2.65368 3.47992C3.2242 2.67429 4.10357 2.14446 5.07983 2.018C6.19734 1.87324 7.56488 2.60576 10.3006 4.07114L10.3083 4.07527L45.6246 22.9924C48.66 24.6183 50.1777 25.4314 50.6751 26.5139C51.1083 27.4569 51.1083 28.543 50.6751 29.486C50.1777 30.5685 48.66 31.3815 45.6246 33.0074L10.3083 51.9245L10.2986 51.9298C7.5642 53.3944 6.19707 54.1267 5.07983 53.982C4.10357 53.8555 3.2242 53.3257 2.65368 52.52C2 51.597 2 50.0368 2 46.917Z" stroke="white" stroke-width="4" stroke-linecap="round" stroke-linejoin="round"/>
</svg>
