<svg width="51" height="51" viewBox="0 0 51 51" fill="none" xmlns="http://www.w3.org/2000/svg">
<path id="Vector" d="M28.7535 3.19795L27.7806 4.33963L28.7535 3.19795ZM31.9416 5.91479L30.9687 7.05647L31.9416 5.91479ZM34.7947 7.09693L34.9141 5.60169L34.914 5.60169L34.7947 7.09693ZM38.9697 7.43027L38.8503 8.92551L38.8504 8.92552L38.9697 7.43027ZM43.5711 12.0301L45.0664 11.9117L45.0663 11.9108L43.5711 12.0301ZM43.9018 16.2056L42.4064 16.324L42.4065 16.3249L43.9018 16.2056ZM45.0847 19.0594L43.943 20.0323L43.9432 20.0326L45.0847 19.0594ZM47.8026 22.2473L48.9443 21.2744L48.9441 21.2742L47.8026 22.2473ZM47.8014 28.7526L46.6598 27.7797L46.6595 27.78L47.8014 28.7526ZM45.0858 31.9408L46.2274 32.9137L46.2277 32.9135L45.0858 31.9408ZM43.9026 34.7945L45.3978 34.9141L45.3979 34.9138L43.9026 34.7945ZM43.5686 38.9698L42.0733 38.8502L42.0733 38.8505L43.5686 38.9698ZM38.9711 43.5698L39.0904 45.0651L39.0904 45.0651L38.9711 43.5698ZM34.7943 43.9031L34.675 42.4078L34.675 42.4078L34.7943 43.9031ZM31.9409 45.085L30.968 43.9434L30.9679 43.9435L31.9409 45.085ZM28.7535 47.802L29.7264 48.9437L29.7266 48.9436L28.7535 47.802ZM22.2461 47.8021L21.2731 48.9436L21.2732 48.9438L22.2461 47.8021ZM19.0587 45.0852L20.0318 43.9436L20.0316 43.9435L19.0587 45.0852ZM16.2054 43.903L16.3247 42.4077L16.3246 42.4077L16.2054 43.903ZM12.0286 43.5699L11.9093 45.0651L11.9093 45.0651L12.0286 43.5699ZM7.43108 38.9699L8.92633 38.8505L8.92631 38.8502L7.43108 38.9699ZM7.09704 34.7944L5.6018 34.9137L5.60182 34.914L7.09704 34.7944ZM5.91388 31.9407L4.77201 32.9134L4.77221 32.9137L5.91388 31.9407ZM3.19821 28.7527L4.34009 27.78L4.33988 27.7798L3.19821 28.7527ZM3.19771 22.2473L2.05614 21.2743L2.05605 21.2744L3.19771 22.2473ZM5.91508 19.0593L7.05665 20.0323L7.05675 20.0322L5.91508 19.0593ZM7.09595 16.2056L5.60074 16.0859L5.60071 16.0863L7.09595 16.2056ZM7.43024 12.0302L8.92546 12.1499L8.92549 12.1495L7.43024 12.0302ZM12.0311 7.43015L12.1504 8.9254L12.1504 8.9254L12.0311 7.43015ZM16.204 7.09707L16.0847 5.60182L16.0847 5.60183L16.204 7.09707ZM19.0591 5.91487L20.0321 7.05655L20.0321 7.05647L19.0591 5.91487ZM22.2468 3.19795L21.2739 2.05628L21.2738 2.05635L22.2468 3.19795ZM25.6299 34.5082H27.1299C27.1299 33.6798 26.4583 33.0082 25.6299 33.0082V34.5082ZM25.6299 34.7693L25.6295 36.2693C26.0274 36.2694 26.409 36.1114 26.6904 35.8301C26.9718 35.5488 27.1299 35.1672 27.1299 34.7693H25.6299ZM25.3698 34.7692H23.8698C23.8698 35.5975 24.5411 36.269 25.3694 36.2692L25.3698 34.7692ZM25.3698 34.5082V33.0082C24.5414 33.0082 23.8698 33.6798 23.8698 34.5082H25.3698ZM26.9998 16.2305C26.9998 15.4021 26.3283 14.7305 25.4998 14.7305C24.6714 14.7305 23.9998 15.4021 23.9998 16.2305H26.9998ZM23.9998 26.6749C23.9998 27.5033 24.6714 28.1749 25.4998 28.1749C26.3283 28.1749 26.9998 27.5033 26.9998 26.6749H23.9998ZM27.7806 4.33963L30.9687 7.05647L32.9145 4.77312L29.7264 2.05628L27.7806 4.33963ZM30.9687 7.05647C32.0119 7.94546 33.3085 8.4831 34.6754 8.59218L34.914 5.60169C34.1771 5.54288 33.4777 5.25307 32.9145 4.77312L30.9687 7.05647ZM34.6753 8.59218L38.8503 8.92551L39.0891 5.93503L34.9141 5.60169L34.6753 8.59218ZM38.8504 8.92552C40.5715 9.06286 41.9386 10.4295 42.0758 12.1494L45.0663 11.9108C44.8118 8.72116 42.2775 6.18946 39.089 5.93502L38.8504 8.92552ZM42.0757 12.1485L42.4065 16.324L45.3971 16.0871L45.0664 11.9117L42.0757 12.1485ZM42.4065 16.3249C42.5156 17.6922 43.0543 18.9895 43.943 20.0323L46.2263 18.0865C45.7461 17.5229 45.4558 16.8228 45.397 16.0862L42.4065 16.3249ZM43.9432 20.0326L46.6612 23.2205L48.9441 21.2742L46.2261 18.0862L43.9432 20.0326ZM46.661 23.2203C47.78 24.5334 47.7797 26.4655 46.6598 27.7797L48.9431 29.7256C51.0177 27.2911 51.0198 23.7099 48.9443 21.2744L46.661 23.2203ZM46.6595 27.78L43.9439 30.9681L46.2277 32.9135L48.9433 29.7253L46.6595 27.78ZM43.9441 30.9679C43.0556 32.0105 42.5165 33.3076 42.4074 34.6752L45.3979 34.9138C45.4566 34.1776 45.747 33.4774 46.2274 32.9137L43.9441 30.9679ZM42.4074 34.6749L42.0733 38.8502L45.0638 39.0894L45.3978 34.9141L42.4074 34.6749ZM42.0733 38.8505C41.9359 40.572 40.5713 41.9374 38.8517 42.0746L39.0904 45.0651C42.2805 44.8105 44.8094 42.2771 45.0638 39.0891L42.0733 38.8505ZM38.8518 42.0746L34.675 42.4078L34.9136 45.3983L39.0904 45.0651L38.8518 42.0746ZM34.675 42.4078C33.3083 42.5169 32.0114 43.0542 30.968 43.9434L32.9138 46.2267C33.4768 45.7469 34.1764 45.4572 34.9136 45.3983L34.675 42.4078ZM30.9679 43.9435L27.7805 46.6605L29.7266 48.9436L32.914 46.2266L30.9679 43.9435ZM27.7806 46.6603C26.4669 47.7799 24.5327 47.7799 23.219 46.6604L21.2732 48.9438C23.7082 51.0188 27.2915 51.0187 29.7264 48.9437L27.7806 46.6603ZM23.2192 46.6605L20.0318 43.9436L18.0857 46.2267L21.2731 48.9436L23.2192 46.6605ZM20.0316 43.9435C18.9884 43.0545 17.6915 42.5168 16.3247 42.4077L16.086 45.3982C16.823 45.457 17.5226 45.7469 18.0858 46.2268L20.0316 43.9435ZM16.3246 42.4077L12.1478 42.0746L11.9093 45.0651L16.0861 45.3982L16.3246 42.4077ZM12.1479 42.0746C10.4284 41.9374 9.06371 40.5721 8.92633 38.8505L5.93584 39.0892C6.19025 42.2772 8.7192 44.8106 11.9093 45.0651L12.1479 42.0746ZM8.92631 38.8502L8.59227 34.6748L5.60182 34.914L5.93586 39.0895L8.92631 38.8502ZM8.59229 34.6751C8.48315 33.3075 7.94408 32.0104 7.05555 30.9678L4.77221 32.9137C5.25263 33.4774 5.54304 34.1775 5.6018 34.9137L8.59229 34.6751ZM7.05575 30.9681L4.34009 27.78L2.05634 29.7254L4.77201 32.9134L7.05575 30.9681ZM4.33988 27.7798C3.22019 26.4659 3.22006 24.5337 4.33938 23.2202L2.05605 21.2744C-0.0191987 23.7095 -0.0183315 27.2909 2.05655 29.7257L4.33988 27.7798ZM4.33929 23.2203L7.05665 20.0323L4.7735 18.0862L2.05614 21.2743L4.33929 23.2203ZM7.05675 20.0322C7.94666 18.988 8.48223 17.6905 8.5912 16.325L5.60071 16.0863C5.54178 16.8247 5.25245 17.5242 4.77341 18.0864L7.05675 20.0322ZM8.59117 16.3253L8.92546 12.1499L5.93503 11.9105L5.60074 16.0859L8.59117 16.3253ZM8.92549 12.1495C9.06277 10.4293 10.4296 9.06272 12.1504 8.9254L11.9118 5.9349C8.72302 6.18937 6.18951 8.72149 5.935 11.9108L8.92549 12.1495ZM12.1504 8.9254L16.3234 8.59231L16.0847 5.60183L11.9117 5.93491L12.1504 8.9254ZM16.3233 8.59232C17.6895 8.48329 18.9883 7.946 20.0321 7.05655L18.0862 4.7732C17.5236 5.25268 16.8224 5.54296 16.0847 5.60182L16.3233 8.59232ZM20.0321 7.05647L23.2198 4.33955L21.2738 2.05635L18.0861 4.77327L20.0321 7.05647ZM23.2197 4.33963C24.5334 3.22012 26.4669 3.22012 27.7806 4.33963L29.7264 2.05628C27.2915 -0.0187593 23.7088 -0.0187593 21.2739 2.05628L23.2197 4.33963ZM24.1299 34.5082V34.7693H27.1299V34.5082H24.1299ZM25.6302 33.2693L25.3702 33.2692L25.3694 36.2692L25.6295 36.2693L25.6302 33.2693ZM26.8698 34.7692V34.5082H23.8698V34.7692H26.8698ZM25.3698 36.0082H25.6299V33.0082H25.3698V36.0082ZM23.9998 16.2305V26.6749H26.9998V16.2305H23.9998Z" fill="#0C0E4A"/>
</svg>
