<svg width="633" height="204" viewBox="0 0 633 204" fill="none" xmlns="http://www.w3.org/2000/svg">
<path d="M313.994 63.397C314.725 61.7512 315.932 61.3854 317.432 61.422C322.26 61.4586 327.051 61.4586 331.879 61.422C332.391 61.422 332.756 61.5317 333.122 61.8975C334.512 63.3239 335.938 64.6771 337.292 66.1035C337.511 66.3595 337.694 66.7253 337.694 67.0544C337.694 84.61 337.767 102.202 337.657 119.758C337.621 130.949 329.538 140.312 318.456 142.178C310.08 143.568 302.692 141.519 296.658 135.411C293.037 131.754 291.025 127.219 290.477 122.099C290.33 120.782 290.257 119.429 290.257 118.075C290.257 101.251 290.257 84.3906 290.221 67.5665C290.221 66.835 290.44 66.2864 290.989 65.7743C292.342 64.4942 293.659 63.1044 295.012 61.7878C295.231 61.5683 295.634 61.422 295.926 61.422C301.01 61.3854 306.057 61.422 311.141 61.422C312.458 61.422 313.409 62.0438 313.994 63.397ZM295.341 66.5058C295.341 67.7128 295.341 68.81 295.341 69.9438C295.341 85.9633 295.341 101.983 295.341 118.002C295.341 119.282 295.378 120.599 295.561 121.879C297.097 132.01 306.789 138.996 316.993 137.35C325.99 135.924 332.647 128.17 332.683 119.099C332.72 102.531 332.683 85.9998 332.683 69.4318C332.683 68.4808 332.683 67.5299 332.683 66.5424C320.211 66.5058 307.849 66.5058 295.341 66.5058Z" fill="white"/>
<path d="M259.098 103.007C259.098 102.605 259.098 102.349 259.098 102.093C259.646 102.019 260.195 101.946 260.707 101.837C261.475 101.727 261.877 101.288 261.95 100.52C261.987 100.154 262.024 99.825 262.024 99.4592C262.024 94.7046 262.024 89.9499 262.024 85.1953C262.024 84.9759 262.024 84.7198 261.987 84.5004C261.877 83.4032 261.512 83.0009 260.414 82.8546C260.085 82.818 259.719 82.7448 259.354 82.7083C259.354 82.4157 259.354 82.1962 259.354 81.8671C260.158 81.8671 260.89 81.8671 261.658 81.8671C263.852 81.8671 266.047 81.8305 268.241 81.9036C269.192 81.9402 270.143 82.0499 271.021 82.3059C272.923 82.818 274.02 84.0981 274.276 86.0365C274.495 87.8652 273.837 89.4013 272.301 90.4254C271.606 90.8643 270.801 91.1935 270.07 91.5592C270.875 91.8152 271.716 91.9981 272.52 92.2907C276.617 93.8268 276.287 98.4351 274.093 100.483C272.63 101.837 270.875 102.568 268.936 102.714C265.681 102.934 262.426 102.934 259.098 103.007ZM264.73 92.2541C264.73 93.7171 264.73 95.0703 264.73 96.4601C264.73 97.6671 264.73 98.9106 264.84 100.118C264.95 101.178 265.498 101.763 266.522 101.763C267.473 101.8 268.461 101.763 269.375 101.507C271.35 100.959 272.447 99.3861 272.484 97.2282C272.52 94.9606 271.569 93.461 269.558 92.7296C268.022 92.2175 266.449 92.2175 264.73 92.2541ZM264.767 91.3032C265.937 91.23 267.034 91.23 268.131 91.0472C270.07 90.718 271.057 89.6208 271.313 87.7189C271.606 85.4147 270.436 83.4763 268.387 83.074C267.546 82.8911 266.668 83.0009 265.791 83.0374C265.132 83.074 264.73 83.4397 264.73 84.1347C264.767 86.4388 264.767 88.7796 264.767 91.3032Z" fill="white"/>
<path d="M160.749 86.4386C160.64 86.2923 160.493 86.0729 160.31 85.8535C162.395 83.4396 164.773 81.4646 168.028 81.2085C172.453 80.8428 176.037 83.4761 177.208 87.865C177.976 90.7178 177.976 93.5706 177.025 96.3502C175.598 100.483 172.636 102.934 168.32 103.592C164.26 104.214 160.164 100.666 160.018 96.4965C159.981 95.1433 160.384 94.7044 161.737 94.6678C163.31 94.5947 164.882 94.5581 166.455 94.5215C168.869 94.4484 171.319 94.3752 173.733 94.3387C174.282 94.3387 174.501 94.1558 174.574 93.6072C174.757 91.9613 174.794 90.3521 174.355 88.7794C173.038 83.9516 167.991 81.94 163.566 84.4636C162.615 84.9757 161.737 85.7437 160.749 86.4386ZM173.989 95.9113C173.953 95.8748 173.916 95.8382 173.879 95.8382C170.698 95.8382 167.516 95.8382 164.37 95.8382C163.748 95.8382 163.419 96.2039 163.456 96.8257C163.492 98.4715 164.114 99.8248 165.321 100.959C166.345 101.909 167.516 102.348 168.942 102.166C171.758 101.763 173.879 98.8738 173.989 95.9113Z" fill="white"/>
<path d="M199.445 102.824C199.445 102.604 199.445 102.348 199.445 102.092C199.848 102.056 200.213 101.983 200.579 101.946C201.64 101.8 202.005 101.434 202.152 100.373C202.188 100.008 202.188 99.6052 202.188 99.2395C202.188 94.558 202.188 89.8765 202.188 85.195C202.188 84.939 202.188 84.683 202.152 84.4269C202.042 83.3663 201.713 83.0371 200.689 82.8543C200.36 82.8177 200.031 82.7445 199.665 82.6714C199.665 82.4154 199.665 82.1959 199.665 81.9033C204.2 81.9033 208.699 81.9033 213.307 81.9033C213.417 83.3663 213.526 84.8293 213.673 86.3654C213.343 86.4385 213.087 86.5117 212.795 86.5482C212.612 85.9631 212.466 85.451 212.319 84.939C211.954 83.6589 211.076 83.0371 209.759 83.0005C208.406 82.964 207.016 82.964 205.663 82.964C205.261 82.964 204.931 83.1103 204.931 83.5492C204.931 85.8899 204.931 88.2306 204.931 90.608C205.882 90.608 206.797 90.5714 207.711 90.608C208.918 90.6811 210.125 90.7177 211.295 90.9737C213.819 91.5589 215.355 93.1682 215.611 95.4358C215.94 98.252 214.843 100.446 212.466 101.69C211.112 102.385 209.649 102.751 208.113 102.787C205.261 102.897 202.371 102.824 199.445 102.824ZM204.895 95.8015C204.931 95.8015 204.968 95.8015 205.005 95.8015C205.005 97.2279 204.968 98.6543 205.005 100.117C205.041 100.849 205.407 101.434 206.138 101.653C209.137 102.568 211.99 100.812 212.429 97.7399C212.539 97.0816 212.502 96.4233 212.429 95.7649C212.21 93.8631 211.186 92.5098 209.284 92.1441C208.004 91.8881 206.614 91.9246 205.297 91.8149C204.895 91.7783 204.858 92.0343 204.858 92.3635C204.895 93.4973 204.895 94.6677 204.895 95.8015Z" fill="white"/>
<path d="M404.222 81.9766C404.222 81.7205 404.222 81.4645 404.222 81.2451C404.442 81.2451 404.625 81.2085 404.807 81.2085C407.807 81.2451 410.842 81.2451 413.841 81.3548C415.304 81.4279 416.584 81.9765 417.426 83.2932C418.706 85.2682 418.194 87.865 416.219 89.1451C415.597 89.584 414.865 89.84 414.134 90.2057C414.317 90.2423 414.5 90.3155 414.646 90.352C415.268 90.5349 415.926 90.6812 416.548 90.9372C420.205 92.4002 419.913 96.533 418.047 98.3983C416.694 99.7516 414.975 100.483 413.11 100.593C410.074 100.776 407.039 100.776 403.966 100.885C403.93 100.52 403.93 100.3 403.93 100.044C404.405 99.971 404.844 99.9344 405.283 99.8613C406.234 99.715 406.636 99.3127 406.636 98.3618C406.673 96.6428 406.673 94.9238 406.709 93.2048C406.709 90.352 406.709 87.4992 406.709 84.6465C406.709 84.2807 406.709 83.8784 406.673 83.5127C406.6 82.6715 406.27 82.3057 405.429 82.1594C405.027 82.0863 404.661 82.0497 404.222 81.9766ZM409.196 94.4118C409.233 94.4118 409.27 94.4118 409.306 94.4118C409.306 95.6553 409.233 96.8988 409.343 98.1423C409.416 99.1298 409.928 99.6053 410.915 99.715C411.574 99.7882 412.269 99.7881 412.964 99.6784C415.012 99.3493 416.328 97.8497 416.438 95.8381C416.548 93.3511 415.597 91.7784 413.402 91.2664C412.195 90.9738 410.952 91.0104 409.708 90.9006C409.306 90.8641 409.233 91.0835 409.233 91.4127C409.196 92.4002 409.196 93.4243 409.196 94.4118ZM409.27 86.4752C409.233 86.4752 409.233 86.4752 409.196 86.4752C409.196 87.3529 409.233 88.2673 409.196 89.1451C409.16 89.8034 409.416 89.9863 410.001 89.9131C410.586 89.84 411.171 89.8766 411.757 89.8034C414.646 89.5474 416.072 87.3895 415.195 84.6099C414.573 82.6715 412.488 81.684 410.184 82.2326C409.635 82.3789 409.306 82.6349 409.27 83.2201C409.233 84.3173 409.27 85.4145 409.27 86.4752Z" fill="white"/>
<path d="M240.846 82.7446C240.846 82.4154 240.846 82.196 240.846 81.9399C245.637 81.9399 250.392 81.9399 255.219 81.9399C255.329 83.4395 255.402 84.939 255.512 86.5117C255.219 86.5849 254.927 86.6214 254.707 86.6946C254.378 85.8534 254.049 85.0487 253.72 84.2441C253.464 83.6589 252.988 83.2566 252.367 83.22C250.538 83.1103 248.709 83.0737 246.88 83.0737C246.698 83.0737 246.368 83.4395 246.368 83.6589C246.332 86.2191 246.332 88.7793 246.332 91.3395C248.051 91.3395 249.697 91.3761 251.379 91.3395C252.147 91.3029 252.513 90.7543 252.696 90.0594C252.769 89.7302 252.842 89.4376 252.952 89.0719C253.244 89.0719 253.464 89.0719 253.793 89.0719C253.793 91.0835 253.793 93.1316 253.793 95.1798C253.5 95.1798 253.244 95.1798 253.025 95.1798C252.988 95.1432 252.952 95.1066 252.952 95.1066C252.513 93.095 252.44 92.7659 249.879 92.6927C248.746 92.6562 247.612 92.6927 246.515 92.6927C246.442 92.7659 246.405 92.8025 246.405 92.839C246.405 95.1798 246.332 97.4839 246.405 99.8247C246.442 101.178 246.954 101.727 248.234 101.8C249.697 101.909 251.196 101.836 252.696 101.763C253.756 101.727 254.561 101.105 255.073 100.19C255.512 99.4224 255.878 98.6543 256.317 97.7765C256.536 97.8131 256.792 97.8497 257.194 97.8863C256.829 99.5321 256.463 101.105 256.097 102.677C256.061 102.787 255.841 102.933 255.695 102.933C250.648 102.933 245.6 102.933 240.553 102.933C240.517 102.933 240.517 102.897 240.443 102.86C240.443 102.641 240.443 102.385 240.443 102.092C241.029 102.019 241.614 101.946 242.199 101.836C243.077 101.653 243.442 101.251 243.552 100.337C243.589 99.8247 243.625 99.3127 243.625 98.8006C243.625 94.5946 243.625 90.352 243.625 86.146C243.625 85.5974 243.589 85.0487 243.552 84.5367C243.479 83.4761 243.077 83.0737 242.053 82.9274C241.614 82.8177 241.248 82.7811 240.846 82.7446Z" fill="white"/>
<path d="M217.11 102.897C216.927 102.239 217.11 101.983 217.768 101.946C218.865 101.836 219.634 101.178 220.036 100.154C221.17 97.3379 222.303 94.5216 223.437 91.7054C224.681 88.5966 225.924 85.4878 227.095 82.379C227.314 81.7573 227.643 81.4281 228.375 81.4647C228.448 81.6841 228.558 81.9036 228.631 82.123C230.642 87.7189 232.654 93.3147 234.702 98.9105C234.885 99.386 235.104 99.8615 235.287 100.337C235.726 101.288 236.458 101.836 237.518 101.946C238.25 102.019 238.25 102.056 238.103 102.861C235.543 102.861 232.947 102.861 230.35 102.861C230.167 102.312 230.24 101.946 230.935 101.91C231.154 101.91 231.41 101.836 231.63 101.763C232.252 101.58 232.508 101.178 232.288 100.593C231.703 98.9105 231.118 97.2281 230.496 95.5457C230.423 95.3994 230.167 95.2531 229.984 95.2531C227.972 95.2165 225.924 95.2165 223.913 95.2531C223.693 95.2531 223.401 95.5457 223.328 95.7652C222.852 97.0818 222.413 98.4351 221.974 99.7517C221.462 101.288 221.755 101.763 223.401 101.91C224.059 101.983 224.242 102.239 224.022 102.861C221.682 102.897 219.414 102.897 217.11 102.897ZM227.058 85.4513C225.997 88.3772 224.973 91.0837 223.949 93.8633C225.997 93.8633 227.936 93.8633 229.947 93.8633C228.997 91.0837 228.046 88.3772 227.058 85.4513Z" fill="white"/>
<path d="M156.982 97.2647C157.275 97.3744 157.494 97.4841 157.823 97.6304C157.494 98.6545 157.055 99.6055 156.799 100.63C156.433 102.166 155.556 102.787 153.983 103.007C151.057 103.446 148.168 103.665 145.315 102.678C140.706 101.068 137.927 96.4967 138.402 91.6689C138.951 86.1462 142.901 82.5253 148.131 81.6475C150.874 81.1721 153.581 81.5378 156.25 82.2327C156.433 82.2693 156.616 82.5253 156.653 82.7082C156.872 84.1712 157.055 85.6341 157.275 87.1702C156.945 87.2434 156.689 87.3165 156.36 87.3897C156.214 86.9874 156.068 86.5851 155.921 86.1827C155.08 83.9517 153.434 82.8545 151.093 82.635C145.132 82.0499 142.243 86.3656 141.767 90.6814C141.511 93.0221 141.767 95.2897 142.791 97.4476C144.474 101.068 148.058 102.97 151.788 102.202C153.434 101.873 154.641 100.886 155.592 99.5689C156.068 98.8008 156.47 98.0693 156.982 97.2647Z" fill="white"/>
<path d="M472.983 100.776C468.082 100.776 463.291 100.776 458.463 100.776C458.463 100.52 458.463 100.3 458.463 100.044C459.048 99.9344 459.633 99.8613 460.182 99.7516C460.84 99.6053 461.206 99.203 461.316 98.5446C461.352 98.1789 461.389 97.8132 461.389 97.4108C461.389 93.1317 461.389 88.8525 461.389 84.5733C461.389 84.5367 461.389 84.4636 461.389 84.427C461.352 82.5983 461.133 82.3423 459.341 82.0497C459.194 82.0131 459.048 82.0131 458.865 81.9766C458.865 81.7205 458.865 81.4645 458.865 81.2085C463.327 81.2085 467.753 81.2085 472.215 81.2085C472.288 82.6349 472.361 84.0247 472.471 85.4511C472.178 85.5242 471.959 85.5608 471.703 85.634C471.447 84.9391 471.227 84.2807 470.971 83.6224C470.679 82.8543 470.093 82.3789 469.252 82.3423C467.68 82.2691 466.107 82.2691 464.534 82.2691C464.351 82.2691 463.949 82.5983 463.949 82.7812C463.912 85.1585 463.912 87.5724 463.912 90.1326C465.558 90.0594 467.168 90.0229 468.74 89.9131C469.362 89.8766 469.691 89.328 469.837 88.7428C469.911 88.4502 469.984 88.1576 470.057 87.8284C470.313 87.8284 470.532 87.8284 470.825 87.8284C470.825 89.6937 470.825 91.559 470.825 93.4974C470.605 93.4974 470.349 93.4974 470.093 93.4974C470.057 93.4608 470.02 93.4243 470.02 93.3877C469.581 91.4127 469.325 91.1932 467.314 91.1932C466.217 91.1932 465.119 91.1932 463.949 91.1932C463.912 91.4127 463.876 91.5955 463.876 91.7784C463.876 93.6071 463.876 95.3993 463.876 97.228C463.876 97.5937 463.912 97.9229 463.986 98.2886C464.132 99.1298 464.534 99.6053 465.375 99.6419C466.912 99.715 468.448 99.715 469.947 99.6419C470.715 99.6053 471.374 99.1664 471.776 98.4715C472.142 97.8863 472.507 97.2645 472.763 96.6062C472.983 96.0576 473.202 95.8016 473.897 96.1307C473.678 97.6669 473.312 99.203 472.983 100.776Z" fill="white"/>
<path d="M186.717 83.1105C185.254 83.1105 183.828 83.0739 182.438 83.1105C181.524 83.1471 180.975 83.6957 180.646 84.5003C180.426 85.0489 180.207 85.5976 180.097 86.1827C179.951 86.8045 179.658 87.0239 179 86.7679C179.146 84.9026 179.256 83.0008 179.402 80.9526C179.731 81.0989 179.951 81.2087 180.17 81.3184C180.609 81.5012 181.048 81.867 181.487 81.867C185.913 81.9036 190.301 81.9036 194.727 81.867C195.166 81.867 195.605 81.5378 196.044 81.355C196.3 81.2452 196.556 81.1355 196.885 80.9892C196.994 83.0008 197.104 84.8661 197.214 86.7314C196.592 86.9874 196.3 86.8776 196.153 86.2193C195.458 83.4031 194.946 83.0739 192.057 83.0374C191.216 83.0374 190.375 83.0374 189.497 83.0374C189.497 83.33 189.46 83.586 189.46 83.8054C189.46 88.8527 189.46 93.8633 189.46 98.9105C189.46 99.1666 189.46 99.4226 189.46 99.6786C189.533 101.324 190.009 101.836 191.655 101.983C192.02 102.019 192.35 102.056 192.752 102.092C192.752 102.385 192.752 102.641 192.752 102.934C189.716 102.934 186.644 102.934 183.535 102.934C183.535 102.714 183.499 102.458 183.499 102.129C183.864 102.092 184.23 102.019 184.559 102.019C186.169 101.873 186.644 101.361 186.717 99.7517C186.717 99.5323 186.717 99.3128 186.717 99.13C186.717 94.0096 186.717 88.8527 186.717 83.7323C186.754 83.4763 186.754 83.2934 186.717 83.1105Z" fill="white"/>
<path d="M431.069 80.8062C431.91 83.1835 432.788 85.5974 433.665 88.0113C434.799 91.1201 435.933 94.1923 437.03 97.3011C437.579 98.8006 438.274 100.044 440.139 99.9344C440.175 100.117 440.175 100.227 440.175 100.337C440.175 100.446 440.175 100.556 440.139 100.739C437.725 100.739 435.311 100.739 432.861 100.739C432.861 100.483 432.861 100.264 432.861 100.008C433.226 99.9344 433.629 99.8247 433.994 99.7515C434.616 99.6053 434.909 99.2395 434.689 98.6178C434.141 97.0451 433.629 95.509 433.044 93.9728C432.97 93.8265 432.714 93.6437 432.531 93.6437C430.666 93.6071 428.801 93.6071 426.936 93.6437C426.716 93.6437 426.424 93.8631 426.35 94.046C425.875 95.3627 425.436 96.7159 424.997 98.0691C424.631 99.2761 424.887 99.6418 426.131 99.8613C426.424 99.8978 426.68 99.971 426.972 100.008C426.972 100.264 426.972 100.483 426.972 100.776C424.814 100.776 422.693 100.776 420.535 100.776C420.535 100.52 420.535 100.3 420.535 100.081C420.572 100.044 420.608 100.008 420.645 100.008C422.291 99.8979 423.095 98.8372 423.644 97.4108C425.692 92.1807 427.777 86.9506 429.825 81.7205C430.081 81.0987 430.374 80.8062 431.069 80.8062ZM429.898 84.7562C429.825 84.7562 429.788 84.7562 429.715 84.7562C428.801 87.2432 427.887 89.7668 426.936 92.2904C428.837 92.2904 430.63 92.2904 432.495 92.2904C431.617 89.7303 430.739 87.2432 429.898 84.7562Z" fill="white"/>
<path d="M385.571 100.044C385.571 100.3 385.571 100.52 385.571 100.776C383.12 100.776 380.707 100.776 378.256 100.776C378.256 100.52 378.256 100.3 378.256 100.044C378.695 99.9345 379.097 99.8613 379.5 99.7516C380.048 99.6053 380.304 99.2396 380.121 98.691C379.573 97.1183 379.024 95.5456 378.439 93.9729C378.366 93.8266 378.073 93.6803 377.89 93.6803C376.025 93.6437 374.16 93.6437 372.294 93.6803C372.112 93.6803 371.782 93.9363 371.709 94.1192C371.234 95.4359 370.758 96.7891 370.356 98.1423C369.99 99.3493 370.246 99.715 371.526 99.8979C371.782 99.9345 372.038 100.008 372.331 100.044C372.331 100.3 372.331 100.52 372.331 100.812C370.173 100.812 368.088 100.812 365.894 100.812C365.894 100.593 365.857 100.373 365.857 100.117C365.967 100.081 366.04 100.008 366.113 100.008C367.686 99.8979 368.454 98.9104 368.966 97.5571C371.014 92.2905 373.136 87.0604 375.184 81.7937C375.403 81.2451 375.659 80.8428 376.427 80.8428C376.501 81.0622 376.61 81.3182 376.72 81.6108C378.585 86.8044 380.487 91.9979 382.352 97.1914C382.462 97.5571 382.645 97.8863 382.791 98.2155C383.194 99.203 383.852 99.7882 384.949 99.8979C385.169 99.9345 385.351 99.971 385.571 100.044ZM375.33 84.7928C375.257 84.7928 375.22 84.7928 375.147 84.7928C374.233 87.2798 373.319 89.8034 372.368 92.3271C374.269 92.3271 376.062 92.3271 377.927 92.3271C377.049 89.7669 376.171 87.2798 375.33 84.7928Z" fill="white"/>
<path d="M474.885 82.0863C474.885 81.7206 474.885 81.5011 474.885 81.2451C477.335 81.2451 479.749 81.2451 482.2 81.2451C482.2 81.4646 482.236 81.684 482.236 81.94C481.724 82.0497 481.249 82.1595 480.773 82.2692C480.298 82.3789 480.115 82.7081 480.261 83.1835C480.334 83.403 480.371 83.5859 480.444 83.8053C482.053 88.0845 483.699 92.3271 485.308 96.6063C485.345 96.716 485.418 96.8257 485.491 96.972C485.601 96.7891 485.674 96.6428 485.747 96.4965C487.247 92.5465 488.783 88.5965 490.209 84.6099C490.941 82.6349 490.795 82.4521 488.746 82.0497C488.6 82.0132 488.49 81.9766 488.307 81.9766C488.307 81.7206 488.307 81.5011 488.307 81.2451C490.502 81.2451 492.733 81.2451 495.001 81.2451C495.001 81.5011 495.001 81.7206 495.001 81.9766C494.818 82.0132 494.635 82.0863 494.452 82.0863C493.318 82.196 492.55 82.8544 492.111 83.8784C491.16 86.1095 490.173 88.3771 489.258 90.6447C487.942 93.8998 486.698 97.228 485.418 100.483C485.272 100.812 485.199 101.105 484.723 101.105C484.211 101.105 484.175 100.776 484.065 100.447C482.09 95.253 480.115 90.0961 478.14 84.9025C478.14 84.866 478.103 84.8294 478.103 84.7562C477.482 83.3298 476.896 81.94 474.885 82.0863Z" fill="white"/>
<path d="M438.895 82.0497C438.895 81.7205 438.895 81.501 438.895 81.245C441.272 81.245 443.576 81.245 445.99 81.245C445.99 81.501 446.026 81.7205 446.026 81.9765C445.624 82.0497 445.258 82.1228 444.893 82.2325C444.125 82.452 444.015 82.708 444.381 83.4029C445.222 84.939 446.1 86.4751 446.941 88.0112C447.453 88.9256 448.001 89.8399 448.623 90.9006C449.94 88.3404 451.183 85.9265 452.39 83.476C452.756 82.708 452.537 82.3423 451.695 82.1594C451.293 82.0862 450.927 82.0131 450.489 81.9399C450.489 81.6839 450.489 81.4645 450.489 81.1719C452.683 81.1719 454.841 81.1719 457.035 81.1719C457.035 81.3913 457.072 81.6108 457.072 81.8302C456.999 81.9034 456.962 81.9399 456.926 81.9399C455.243 82.0131 454.219 83.0372 453.414 84.427C452.208 86.5483 450.927 88.633 449.757 90.7909C449.391 91.4492 449.208 92.2538 449.172 92.9853C449.099 94.5946 449.135 96.2404 449.172 97.8497C449.208 99.2395 449.574 99.6052 450.964 99.7881C451.33 99.8247 451.695 99.8978 452.134 99.9344C452.134 100.154 452.171 100.41 452.171 100.666C449.355 100.666 446.539 100.666 443.722 100.666C443.722 100.446 443.686 100.227 443.686 99.9344C444.198 99.8613 444.637 99.8247 445.112 99.7515C446.1 99.6052 446.539 99.2029 446.575 98.252C446.648 96.4599 446.648 94.6312 446.612 92.8024C446.612 92.327 446.392 91.8515 446.136 91.4126C444.746 88.9622 443.32 86.5117 441.93 84.0612C441.272 82.964 440.431 82.0497 438.895 82.0497Z" fill="white"/>
<path d="M352.215 95.5456C352.544 95.4725 352.8 95.3993 353.056 95.3262C353.239 95.7651 353.349 96.2405 353.568 96.6428C353.97 97.3743 354.336 98.1058 354.848 98.7276C355.945 100.044 357.408 100.447 359.054 100.117C360.261 99.8614 361.139 99.1299 361.505 97.9229C361.907 96.5331 361.797 95.1433 360.7 94.1192C359.932 93.3878 359.018 92.8391 358.14 92.2905C357.262 91.7419 356.311 91.303 355.47 90.7178C353.202 89.1451 352.361 87.0238 353.019 84.7197C353.678 82.5252 355.799 80.916 358.396 80.8794C359.713 80.8794 360.993 81.2086 362.309 81.3549C362.748 81.428 362.858 81.684 362.931 82.0863C363.041 83.2201 363.187 84.3905 363.333 85.5243C362.638 85.9632 362.565 85.9266 362.309 85.1951C362.126 84.6831 361.944 84.1345 361.651 83.6225C360.883 82.2326 359.53 81.6109 357.957 81.8303C356.713 82.0132 355.799 82.6715 355.397 83.8785C354.921 85.2317 355.068 86.5484 356.092 87.5725C356.787 88.2674 357.664 88.816 358.542 89.3646C359.749 90.1326 361.102 90.7178 362.2 91.5956C365.126 93.8998 364.869 98.1058 361.761 100.154C360.188 101.178 358.396 101.507 356.531 101.251C355.507 101.105 354.519 100.739 353.568 100.447C353.349 100.373 353.093 100.081 353.056 99.8614C352.69 98.3984 352.471 97.0086 352.215 95.5456Z" fill="white"/>
<path d="M429.422 124.073C429.239 123.561 429.422 123.452 429.861 123.378C431.36 123.196 431.58 122.976 431.616 121.477C431.653 117.819 431.653 114.125 431.616 110.468C431.616 108.932 431.434 108.822 429.532 108.529C429.532 108.346 429.532 108.164 429.532 107.798C432.348 107.871 435.128 107.871 437.871 108.054C439.699 108.2 440.87 109.371 441.235 111.016C441.638 112.735 440.979 114.418 439.48 115.478C439.078 115.771 438.639 115.99 438.163 116.283C439.59 118.66 440.906 121.038 442.954 122.976C443.174 123.196 443.54 123.305 443.796 123.525C443.978 123.671 444.125 123.89 444.381 124.22C442.333 124.366 440.723 124 439.626 122.464C438.712 121.184 437.834 119.904 437.103 118.551C436.371 117.124 435.274 116.795 433.847 117.051C433.847 118.843 433.811 120.672 433.884 122.464C433.884 122.757 434.396 123.086 434.725 123.269C435.054 123.415 435.457 123.415 435.896 123.488C435.896 123.671 435.932 123.854 435.932 124.11C433.738 124.073 431.58 124.073 429.422 124.073ZM433.701 116.283C434.615 116.21 435.493 116.21 436.298 116.1C437.395 115.954 438.2 115.296 438.639 114.271C439.26 112.809 439.26 111.346 438.309 110.029C437.395 108.749 436.005 108.602 434.579 108.749C434.03 108.785 433.701 109.115 433.701 109.663C433.665 111.784 433.701 113.942 433.701 116.283Z" fill="white"/>
<path d="M397.86 100.008C397.86 100.264 397.86 100.52 397.86 100.776C395.007 100.776 392.191 100.776 389.302 100.776C389.302 100.556 389.265 100.337 389.265 100.044C389.667 99.971 390.033 99.9344 390.399 99.8612C391.862 99.6418 392.228 99.2761 392.228 97.8131C392.264 94.3386 392.264 90.9006 392.264 87.426C392.264 85.7436 392.264 84.0246 392.264 82.2325C390.692 82.2325 389.155 82.0497 387.692 82.5251C387.29 82.6348 386.924 83.0737 386.742 83.476C386.449 84.0246 386.23 84.6464 386.12 85.2682C385.974 85.8899 385.644 85.9265 385.096 85.7802C385.205 83.9881 385.352 82.2691 385.461 80.4038C385.754 80.5135 385.937 80.5867 386.156 80.6598C386.632 80.8427 387.107 81.1719 387.619 81.1719C391.606 81.2084 395.592 81.2084 399.579 81.1719C400.055 81.1719 400.53 80.8427 400.969 80.6964C401.225 80.6233 401.444 80.5135 401.737 80.4038C401.847 82.1959 401.956 83.8418 402.03 85.451C402.03 85.5973 401.627 85.7802 401.335 85.9997C401.042 85.1585 400.859 84.4635 400.603 83.8052C400.237 82.8177 399.542 82.3057 398.445 82.2691C397.421 82.2325 396.434 82.2325 395.41 82.1959C394.971 82.1959 394.788 82.3057 394.788 82.7811C394.788 87.6455 394.788 92.5464 394.824 97.4108C394.824 97.7034 394.861 98.0326 394.898 98.3251C395.007 99.1664 395.3 99.5321 396.141 99.7515C396.397 99.8247 396.69 99.8613 396.982 99.8978C397.238 99.9344 397.494 99.971 397.86 100.008Z" fill="white"/>
<path d="M381.584 107.908C383.523 107.908 385.388 107.908 387.327 107.908C387.327 108.091 387.363 108.31 387.363 108.529C387.107 108.566 386.888 108.603 386.705 108.639C385.717 108.822 385.352 109.188 385.278 110.212C385.205 111.199 385.132 112.187 385.132 113.174C385.132 116.612 385.132 120.05 385.132 123.488C385.132 123.744 385.132 124 385.132 124.256C384.584 124.549 384.291 124.256 383.998 123.891C380.743 119.867 377.488 115.881 374.233 111.894C374.087 111.711 373.94 111.565 373.758 111.346C373.721 111.455 373.684 111.529 373.684 111.602C373.721 114.857 373.721 118.148 373.831 121.404C373.867 122.94 374.27 123.305 375.842 123.452C375.952 123.452 376.025 123.488 376.208 123.488C376.245 123.671 376.245 123.854 376.281 124.11C374.306 124.11 372.368 124.11 370.393 124.11C370.393 123.927 370.393 123.744 370.393 123.488C370.612 123.452 370.832 123.452 371.015 123.415C372.075 123.232 372.477 122.793 372.551 121.696C372.624 120.818 372.66 119.941 372.697 119.099C372.697 116.503 372.734 113.906 372.697 111.346C372.697 109.663 372.112 108.968 370.429 108.639C369.99 108.566 369.99 108.566 370.064 107.944C371.197 107.944 372.295 107.908 373.428 107.981C373.648 107.981 373.904 108.273 374.05 108.456C377.269 112.297 380.451 116.137 383.633 119.977C383.779 120.123 383.889 120.27 384.071 120.453C384.108 120.343 384.145 120.27 384.145 120.233C384.108 117.051 384.071 113.869 383.998 110.687C383.962 109.224 383.559 108.859 382.097 108.639C381.584 108.529 381.584 108.529 381.584 107.908Z" fill="white"/>
<path d="M415.305 108.566C415.305 108.347 415.305 108.164 415.305 107.944C418.999 107.944 422.656 107.944 426.387 107.944C426.46 109.042 426.533 110.066 426.57 111.126C426.57 111.309 426.241 111.455 426.021 111.675C425.729 110.907 425.546 110.358 425.29 109.773C425.07 109.224 424.631 108.859 424.046 108.859C422.693 108.786 421.376 108.749 420.023 108.749C419.584 108.749 419.474 109.042 419.474 109.407C419.474 111.309 419.474 113.211 419.474 115.296C420.864 115.223 422.218 115.186 423.534 115.076C424.156 115.003 424.339 114.455 424.412 113.942C424.485 113.467 424.705 113.284 425.217 113.467C425.217 114.967 425.217 116.503 425.217 118.075C424.814 118.295 424.558 118.185 424.449 117.71C424.156 116.466 423.9 116.283 422.583 116.247C421.559 116.247 420.572 116.247 419.548 116.247C419.548 118.222 419.511 120.124 419.548 122.062C419.548 122.757 420.023 123.232 420.755 123.232C422.071 123.269 423.388 123.342 424.705 123.159C425.985 122.976 426.424 121.806 426.862 120.745C427.082 120.27 427.265 120.05 427.813 120.306C427.557 121.55 427.265 122.83 426.972 124.11C422.949 124.11 418.999 124.11 414.976 124.11C414.83 123.708 414.866 123.452 415.415 123.452C415.707 123.452 415.963 123.379 416.256 123.342C416.878 123.232 417.28 122.867 417.353 122.208C417.39 121.916 417.39 121.66 417.39 121.367C417.39 117.819 417.39 114.272 417.39 110.687C417.39 110.578 417.39 110.468 417.39 110.322C417.353 109.115 417.097 108.822 415.927 108.639C415.744 108.603 415.524 108.566 415.305 108.566Z" fill="white"/>
<path d="M362.968 108.529C362.968 108.31 362.968 108.127 362.968 107.908C364.906 107.908 366.845 107.908 368.783 107.908C368.893 108.31 368.856 108.529 368.344 108.603C367.064 108.786 366.698 109.115 366.625 110.395C366.515 112.187 366.589 114.016 366.515 115.844C366.442 117.161 366.406 118.478 366.113 119.758C365.418 122.94 362.858 124.732 359.64 124.476C355.982 124.147 354.044 122.062 353.971 118.222C353.934 115.881 353.934 113.577 353.934 111.236C353.934 110.98 353.934 110.724 353.934 110.468C353.861 109.078 353.641 108.785 352.252 108.639C351.813 108.603 351.666 108.42 351.813 107.981C353.897 107.981 356.019 107.981 358.14 107.981C358.14 108.164 358.14 108.347 358.14 108.566C357.957 108.603 357.774 108.603 357.591 108.639C356.384 108.785 356.019 109.078 356.055 110.285C356.055 113.138 356.092 115.991 356.202 118.807C356.238 119.429 356.494 120.087 356.75 120.672C357.518 122.428 358.945 123.196 360.81 123.159C362.675 123.123 364.102 122.355 364.687 120.562C365.126 119.209 365.345 117.783 365.455 116.356C365.565 114.637 365.455 112.882 365.382 111.126C365.418 109.042 365.162 108.822 362.968 108.529Z" fill="white"/>
<path d="M413.695 107.908C413.695 108.127 413.695 108.31 413.695 108.456C413.658 108.493 413.622 108.529 413.585 108.529C412.232 108.603 411.5 109.444 411.025 110.614C409.343 114.857 407.624 119.136 405.905 123.378C405.831 123.561 405.831 123.781 405.685 123.891C405.539 124.073 405.319 124.293 405.137 124.293C404.954 124.293 404.698 124.073 404.624 123.891C403.893 121.989 403.198 120.087 402.467 118.222C401.479 115.625 400.455 112.991 399.431 110.395C398.846 108.968 398.59 108.785 397.017 108.493C397.017 108.31 396.98 108.127 396.98 107.871C399.029 107.871 401.004 107.871 403.052 107.871C403.052 108.09 403.052 108.237 403.052 108.456C402.905 108.493 402.759 108.493 402.649 108.529C401.369 108.749 401.26 108.968 401.699 110.175C402.723 112.918 403.783 115.661 404.844 118.404C405.137 119.209 405.466 120.014 405.831 120.965C406.197 120.087 406.49 119.355 406.782 118.587C407.77 115.917 408.794 113.211 409.781 110.541C409.855 110.358 409.928 110.139 409.964 109.919C410.147 109.115 410.001 108.822 409.196 108.639C408.867 108.566 408.538 108.529 408.172 108.456C408.172 108.273 408.172 108.054 408.172 107.834C410.037 107.908 411.866 107.908 413.695 107.908Z" fill="white"/>
<path d="M490.794 123.488C490.794 123.708 490.794 123.891 490.794 124.11C488.453 124.11 486.149 124.11 483.845 124.11C483.698 123.671 483.772 123.452 484.284 123.452C484.576 123.452 484.905 123.379 485.198 123.306C485.783 123.196 486.149 122.867 486.185 122.245C486.222 120.672 486.259 119.1 486.259 117.527C486.259 117.198 486.076 116.832 485.929 116.539C484.722 114.418 483.479 112.297 482.272 110.175C481.797 109.334 481.175 108.712 480.151 108.603C480.004 108.566 479.858 108.274 479.639 107.981C481.797 107.981 483.772 107.981 485.747 107.981C485.747 108.2 485.747 108.347 485.747 108.566C485.454 108.639 485.161 108.712 484.869 108.786C484.357 108.895 484.101 109.188 484.393 109.7C485.527 111.712 486.661 113.723 487.795 115.698C487.831 115.735 487.868 115.735 488.014 115.808C489.038 113.796 490.062 111.821 491.05 109.81C491.342 109.188 491.16 108.932 490.465 108.749C490.282 108.712 490.099 108.639 489.916 108.639C489.441 108.639 489.331 108.42 489.477 107.981C491.269 107.981 493.061 107.981 494.89 107.981C494.89 108.164 494.89 108.347 494.89 108.53C494.817 108.566 494.78 108.603 494.707 108.603C493.537 108.676 492.732 109.261 492.147 110.249C491.013 112.187 489.879 114.089 488.782 116.064C488.526 116.503 488.416 117.088 488.38 117.6C488.343 118.953 488.343 120.27 488.38 121.623C488.416 122.94 488.636 123.196 489.953 123.415C490.209 123.415 490.465 123.452 490.794 123.488Z" fill="white"/>
<path d="M445.553 119.648C446.101 120.636 446.503 121.514 447.089 122.318C447.966 123.489 449.21 123.818 450.636 123.562C451.66 123.379 452.392 122.757 452.685 121.733C453.05 120.563 452.941 119.392 451.99 118.551C451.295 117.929 450.453 117.454 449.685 116.942C448.917 116.43 448.076 116.027 447.345 115.515C445.809 114.382 445.15 112.809 445.589 110.944C446.065 109.005 447.491 108.054 449.356 107.652C450.709 107.359 452.026 107.615 453.343 108.018C453.526 108.091 453.745 108.347 453.782 108.53C453.928 109.517 454.038 110.468 454.147 111.529C453.928 111.602 453.745 111.639 453.526 111.712C453.306 111.163 453.123 110.651 452.867 110.139C452.319 108.969 451.368 108.347 450.051 108.42C448.917 108.457 448.003 108.969 447.601 110.102C447.125 111.382 447.345 112.553 448.369 113.467C449.1 114.089 450.015 114.564 450.856 115.076C451.624 115.552 452.428 115.954 453.123 116.466C455.684 118.441 455.428 122.135 452.648 123.745C450.49 124.988 448.222 124.842 445.991 123.854C445.809 123.781 445.589 123.489 445.553 123.269C445.37 122.318 445.223 121.331 445.077 120.343C445.004 119.721 445.26 119.612 445.553 119.648Z" fill="white"/>
<path d="M468.338 123.488C470.679 123.196 470.752 123.086 470.752 120.819C470.752 117.051 470.752 113.284 470.752 109.517C470.752 109.298 470.752 109.042 470.752 108.676C469.509 108.749 468.338 108.749 467.168 108.932C466.802 108.969 466.4 109.334 466.217 109.663C465.924 110.139 465.741 110.688 465.595 111.236C465.485 111.675 465.266 111.821 464.754 111.675C464.864 110.249 464.937 108.822 465.046 107.323C465.229 107.359 465.449 107.286 465.522 107.396C465.997 108.018 466.692 107.908 467.351 107.908C470.313 107.908 473.239 107.908 476.202 107.908C476.86 107.908 477.518 107.981 478.03 107.396C478.103 107.286 478.323 107.323 478.542 107.286C478.652 108.749 478.725 110.175 478.835 111.602C478.359 111.858 478.067 111.712 478.03 111.163C477.994 110.944 477.921 110.761 477.847 110.541C477.372 109.151 476.897 108.786 475.434 108.749C474.629 108.713 473.788 108.749 472.873 108.749C472.873 109.005 472.837 109.261 472.837 109.517C472.837 113.321 472.837 117.088 472.837 120.892C472.837 120.965 472.837 121.038 472.837 121.111C472.873 122.976 473.056 123.232 474.958 123.452C475.434 123.488 475.507 123.671 475.36 124.11C473.02 124.11 470.679 124.11 468.302 124.11C468.338 123.891 468.338 123.708 468.338 123.488Z" fill="white"/>
<path d="M232.178 113.064C230.13 116.466 228.045 119.867 225.924 123.415C225.156 123.415 224.132 123.415 223.071 123.415C223.034 123.378 222.998 123.305 222.998 123.269C223.144 123.159 223.254 122.976 223.437 122.939C224.497 122.647 224.571 122.574 224.571 121.44C224.571 118.77 224.571 116.064 224.571 113.394C224.571 112.296 224.424 112.187 223.327 112.004C223.254 112.004 223.144 111.967 222.852 111.894C223.144 111.711 223.29 111.528 223.437 111.492C224.717 111.455 226.034 111.455 227.314 111.492C227.423 111.492 227.533 111.638 227.643 111.748C227.533 111.821 227.46 111.967 227.314 112.004C226.143 112.296 226.107 112.37 226.07 113.576C226.07 116.137 226.034 118.66 226.034 121.22C226.034 121.33 226.034 121.44 226.07 121.733C226.29 121.44 226.399 121.257 226.509 121.074C228.228 118.258 230.02 115.515 231.593 112.626C232.141 111.601 232.727 111.419 233.678 111.492C234.08 111.528 234.519 111.492 234.958 111.528C235.067 111.528 235.214 111.675 235.323 111.748C235.214 111.858 235.14 112.004 235.031 112.04C233.897 112.37 233.787 112.406 233.787 113.613C233.751 116.246 233.751 118.88 233.787 121.513C233.787 122.647 233.86 122.683 234.958 122.976C235.104 123.013 235.25 123.159 235.396 123.269C235.36 123.305 235.36 123.378 235.323 123.415C233.824 123.415 232.288 123.415 230.788 123.415C230.752 123.378 230.715 123.305 230.678 123.269C230.825 123.159 230.971 123.013 231.154 122.976C232.105 122.757 232.251 122.61 232.288 121.586C232.324 119.428 232.288 117.27 232.324 115.076C232.324 114.418 232.324 113.759 232.324 113.138C232.288 113.064 232.215 113.064 232.178 113.064Z" fill="white"/>
<path d="M150.361 123.159C150.581 123.086 150.764 122.94 150.983 122.903C151.678 122.867 152.007 122.501 152.007 121.806C152.007 118.917 152.007 116.027 152.007 113.101C152.007 112.333 151.532 112.041 150.837 111.968C150.654 111.931 150.508 111.785 150.361 111.712C150.544 111.638 150.727 111.456 150.91 111.456C152.153 111.419 153.36 111.419 154.604 111.456C154.787 111.456 154.933 111.602 155.116 111.675C154.97 111.785 154.823 111.931 154.677 111.968C153.763 112.187 153.616 112.297 153.616 113.248C153.58 114.381 153.616 115.515 153.616 116.686C155.738 116.686 157.786 116.686 159.907 116.686C159.907 115.369 159.944 114.089 159.907 112.845C159.907 112.224 159.359 112.114 158.883 111.968C158.7 111.931 158.554 111.748 158.408 111.638C158.591 111.565 158.737 111.419 158.92 111.419C160.163 111.419 161.407 111.419 162.65 111.419C162.833 111.419 162.979 111.565 163.162 111.638C162.979 111.748 162.833 111.894 162.65 111.931C161.736 112.114 161.516 112.26 161.516 113.248C161.48 116.027 161.48 118.807 161.516 121.587C161.516 122.537 161.699 122.684 162.65 122.867C162.833 122.903 163.016 123.05 163.199 123.123C163.162 123.196 163.162 123.269 163.126 123.342C161.516 123.342 159.907 123.342 158.298 123.342C158.261 123.306 158.225 123.232 158.188 123.196C158.334 123.086 158.481 122.94 158.627 122.903C159.871 122.647 159.907 122.611 159.944 121.331C159.944 120.05 159.944 118.807 159.944 117.49C157.822 117.49 155.774 117.49 153.653 117.49C153.653 119.026 153.653 120.526 153.653 122.025C153.653 122.611 154.092 122.793 154.604 122.867C154.823 122.903 155.043 123.05 155.262 123.123C155.226 123.196 155.189 123.269 155.189 123.342C153.616 123.342 152.044 123.342 150.471 123.342C150.434 123.306 150.398 123.232 150.361 123.159Z" fill="white"/>
<path d="M176.916 123.415C175.38 123.415 173.88 123.415 172.344 123.415C172.308 123.342 172.271 123.269 172.271 123.232C172.454 123.122 172.6 122.976 172.783 122.939C173.697 122.72 173.88 122.574 173.88 121.623C173.88 119.538 173.88 117.417 173.88 115.332C173.88 114.601 173.88 113.833 173.88 112.882C171.722 116.466 169.638 119.867 167.516 123.415C166.748 123.415 165.724 123.415 164.7 123.415C164.664 123.342 164.627 123.269 164.627 123.196C164.81 123.086 165.029 122.939 165.212 122.903C165.834 122.83 166.126 122.501 166.126 121.879C166.126 118.953 166.126 115.99 166.126 113.064C166.126 112.333 165.688 112.114 165.066 112.004C164.92 111.967 164.773 111.858 164.664 111.748C164.81 111.638 164.993 111.492 165.139 111.492C166.383 111.455 167.589 111.455 168.833 111.492C168.979 111.492 169.126 111.638 169.235 111.748C169.089 111.821 168.979 111.967 168.833 112.004C167.882 112.223 167.699 112.37 167.699 113.32C167.663 116.064 167.699 118.843 167.809 121.659C169.857 118.331 171.869 114.966 173.99 111.492C174.758 111.492 175.709 111.492 176.623 111.492C176.733 111.492 176.843 111.638 176.989 111.711C176.879 111.821 176.806 111.967 176.696 111.967C175.526 112.296 175.453 112.333 175.453 113.54C175.453 116.173 175.453 118.807 175.453 121.44C175.453 122.574 175.526 122.61 176.623 122.903C176.77 122.939 176.916 123.122 177.062 123.232C176.989 123.305 176.952 123.342 176.916 123.415Z" fill="white"/>
<path d="M184.669 116.978C185.181 117.125 185.62 117.234 186.022 117.381C188.034 118.185 188.509 120.526 186.973 122.026C186.096 122.903 184.998 123.196 183.828 123.342C183.389 123.415 182.95 123.415 182.475 123.415C181.121 123.415 179.805 123.415 178.452 123.415C178.415 123.342 178.378 123.269 178.342 123.196C178.488 123.086 178.634 122.903 178.817 122.903C179.878 122.867 180.097 122.464 180.097 121.367C180.097 118.697 180.097 116.064 180.097 113.394C180.097 112.26 180.024 112.187 178.89 111.931C178.744 111.894 178.671 111.785 178.525 111.712C178.634 111.602 178.781 111.456 178.89 111.456C180.792 111.456 182.658 111.456 184.559 111.565C185.949 111.638 186.827 112.516 187.01 113.723C187.193 115.076 186.644 116.064 185.327 116.649C185.145 116.759 184.962 116.832 184.669 116.978ZM181.67 117.234C181.67 118.734 181.67 119.977 181.67 121.257C181.67 122.538 182.146 122.94 183.426 122.83C183.645 122.794 183.901 122.757 184.121 122.72C185.291 122.428 186.022 121.587 186.059 120.343C186.132 118.953 185.583 118.002 184.377 117.637C183.572 117.417 182.658 117.381 181.67 117.234ZM181.67 116.869C182.475 116.795 183.17 116.759 183.864 116.649C184.559 116.503 185.108 116.064 185.327 115.332C185.583 114.418 185.547 113.504 184.852 112.736C184.121 111.968 183.17 111.894 182.219 112.15C181.999 112.187 181.707 112.553 181.707 112.772C181.633 114.089 181.67 115.406 181.67 116.869Z" fill="white"/>
<path d="M463.035 124.11C460.877 124.11 458.756 124.11 456.598 124.11C456.452 123.671 456.488 123.488 457.001 123.415C458.5 123.232 458.72 123.013 458.72 121.513C458.72 117.856 458.72 114.162 458.72 110.505C458.72 109.005 458.5 108.786 456.964 108.603C456.488 108.566 456.415 108.383 456.562 107.944C458.72 107.944 460.877 107.944 463.035 107.944C463.035 108.164 463.035 108.31 463.035 108.493C462.962 108.53 462.926 108.566 462.889 108.566C461.024 108.786 460.804 108.968 460.804 110.834C460.804 114.272 460.804 117.71 460.804 121.148C460.804 121.33 460.804 121.477 460.804 121.623C460.877 122.976 461.097 123.232 462.487 123.415C462.962 123.452 463.218 123.525 463.035 124.11Z" fill="white"/>
<path d="M389.008 124.11C389.008 123.891 389.008 123.708 389.008 123.488C389.154 123.452 389.3 123.452 389.447 123.452C390.946 123.269 391.239 123.013 391.239 121.513C391.239 118.039 391.239 114.528 391.239 111.053C391.239 108.932 391.166 108.859 389.081 108.566C389.044 108.53 389.008 108.456 389.008 108.383C389.008 108.237 389.008 108.127 389.044 107.944C391.239 107.944 393.397 107.944 395.591 107.944C395.591 108.164 395.591 108.347 395.591 108.493C395.518 108.53 395.481 108.566 395.445 108.566C393.58 108.749 393.36 108.968 393.36 110.834C393.36 114.308 393.36 117.746 393.36 121.221C393.36 121.404 393.36 121.55 393.36 121.733C393.433 122.976 393.689 123.232 394.896 123.415C395.116 123.452 395.299 123.452 395.555 123.488C395.555 123.708 395.555 123.891 395.555 124.11C393.36 124.11 391.202 124.11 389.008 124.11Z" fill="white"/>
<path d="M192.532 116.868C193.483 116.868 194.361 116.868 195.202 116.868C195.751 116.868 196.043 116.539 196.19 116.027C196.263 115.844 196.409 115.662 196.555 115.479C196.629 115.515 196.702 115.552 196.738 115.588C196.738 116.722 196.738 117.856 196.738 119.026C196.702 119.063 196.629 119.1 196.592 119.136C196.482 118.99 196.263 118.843 196.226 118.697C196.08 117.929 195.604 117.637 194.873 117.673C194.142 117.71 193.373 117.673 192.569 117.673C192.569 119.136 192.532 120.526 192.569 121.916C192.569 122.428 192.935 122.793 193.483 122.793C194.361 122.83 195.275 122.903 196.153 122.757C196.629 122.684 197.067 122.281 197.433 121.916C197.689 121.66 197.799 121.221 198.018 120.855C198.092 120.709 198.274 120.636 198.384 120.526C198.457 120.672 198.604 120.855 198.567 120.965C198.421 121.769 198.238 122.574 198.055 123.379C195.056 123.379 192.13 123.379 189.204 123.379C189.167 123.306 189.131 123.232 189.131 123.159C189.314 123.05 189.497 122.903 189.716 122.867C190.813 122.684 190.996 122.501 190.996 121.404C190.996 118.734 190.996 116.027 190.996 113.357C190.996 112.333 190.813 112.15 189.899 111.931C189.753 111.894 189.606 111.748 189.46 111.638C189.643 111.565 189.789 111.419 189.972 111.419C192.02 111.419 194.068 111.419 196.117 111.419C196.592 111.419 197.104 111.419 197.616 111.419C197.689 112.297 197.726 113.138 197.799 114.199C197.506 114.016 197.25 113.943 197.214 113.796C196.519 112.114 196.519 112.114 194.69 112.077C192.569 112.041 192.569 112.041 192.569 114.162C192.532 115.076 192.532 115.954 192.532 116.868Z" fill="white"/>
<path d="M203.066 118.295C203.066 119.575 203.03 120.745 203.066 121.952C203.066 122.611 203.542 122.867 204.163 122.903C204.419 122.94 204.675 123.05 204.895 123.159C204.858 123.233 204.858 123.306 204.822 123.415C203.176 123.415 201.567 123.415 199.921 123.415C199.884 123.342 199.848 123.269 199.848 123.196C200.031 123.086 200.25 122.94 200.433 122.94C201.164 122.867 201.457 122.464 201.457 121.77C201.457 118.917 201.457 116.027 201.457 113.175C201.457 112.443 201.128 112.077 200.396 112.041C200.25 112.041 200.104 111.858 199.957 111.748C200.104 111.675 200.25 111.529 200.396 111.529C202.152 111.529 203.944 111.529 205.7 111.639C207.382 111.748 208.406 112.699 208.699 114.126C209.028 115.662 208.369 117.198 207.053 118.002C206.029 118.624 204.931 118.844 203.725 118.478C203.578 118.405 203.322 118.368 203.066 118.295ZM203.03 115.04C203.03 115.771 202.993 116.503 203.03 117.234C203.03 117.417 203.212 117.71 203.395 117.783C204.529 118.149 205.846 117.783 206.468 116.978C207.162 116.064 207.272 114.345 206.687 113.284C206.175 112.37 205.078 111.931 203.871 112.077C203.286 112.151 202.993 112.407 202.993 113.028C203.03 113.687 203.03 114.382 203.03 115.04Z" fill="white"/>
<path d="M257.635 120.672C257.452 121.44 257.269 122.172 257.159 122.94C257.086 123.306 256.94 123.452 256.574 123.452C253.904 123.452 251.198 123.452 248.528 123.452C248.455 123.452 248.345 123.415 248.272 123.415C248.235 123.342 248.199 123.306 248.162 123.233C248.345 123.123 248.528 122.977 248.711 122.94C249.808 122.72 249.954 122.611 249.954 121.55C249.991 118.844 249.991 116.137 249.954 113.431C249.954 112.333 249.808 112.26 248.784 112.041C248.638 112.004 248.528 111.858 248.382 111.785C248.528 111.712 248.638 111.529 248.784 111.529C251.344 111.529 253.904 111.529 256.574 111.529C256.611 112.37 256.647 113.175 256.684 113.943C256.684 114.016 256.574 114.162 256.501 114.162C256.428 114.199 256.282 114.126 256.208 114.052C256.172 114.016 256.172 113.906 256.135 113.87C255.514 112.224 255.477 112.187 253.685 112.151C251.49 112.114 251.49 112.114 251.49 114.308C251.49 115.186 251.49 116.027 251.49 116.905C252.441 116.905 253.282 116.905 254.124 116.905C254.672 116.905 255.038 116.613 255.184 116.027C255.221 115.845 255.44 115.662 255.55 115.479C255.623 115.515 255.696 115.552 255.733 115.589C255.733 116.722 255.733 117.82 255.733 119.209C255.477 118.953 255.221 118.844 255.184 118.661C255.038 117.82 254.526 117.6 253.758 117.637C253.026 117.673 252.295 117.637 251.563 117.637C251.563 119.136 251.527 120.599 251.6 122.026C251.6 122.282 252.076 122.72 252.332 122.72C253.356 122.794 254.416 122.83 255.404 122.684C256.282 122.574 256.574 121.66 256.94 120.965C257.05 120.782 257.232 120.636 257.415 120.453C257.489 120.526 257.562 120.599 257.635 120.672Z" fill="white"/>
<path d="M217.33 123.818C214.002 123.708 211.588 121.989 210.929 119.136C210.015 115.259 212.539 111.712 216.562 111.346C217.915 111.236 219.305 111.492 220.695 111.639C220.878 111.639 221.097 111.931 221.134 112.114C221.28 112.772 221.353 113.431 221.39 114.052C221.39 114.199 221.28 114.345 221.207 114.491C221.097 114.382 220.878 114.308 220.841 114.162C220.146 111.09 215.684 111.273 214.002 113.211C212.027 115.479 212.173 119.721 214.331 121.806C216.379 123.745 219.305 123.379 220.804 121.002C220.914 120.819 220.987 120.599 221.134 120.453C221.207 120.343 221.39 120.307 221.499 120.27C221.572 120.38 221.682 120.563 221.646 120.636C221.39 121.404 221.097 122.172 220.768 122.94C220.695 123.086 220.439 123.196 220.256 123.233C219.341 123.489 218.354 123.635 217.33 123.818Z" fill="white"/>
<path d="M144.474 118.844C145.205 117.015 145.937 115.186 146.631 113.358C146.961 112.48 146.814 112.297 145.863 112.041C145.717 112.004 145.571 111.821 145.425 111.712C145.571 111.639 145.717 111.492 145.863 111.492C146.997 111.456 148.168 111.492 149.557 111.492C149.301 111.785 149.192 112.004 149.045 112.041C148.204 112.187 147.802 112.736 147.509 113.431C146.412 115.918 145.315 118.478 144.144 121.002C143.742 121.843 143.194 122.684 142.572 123.379C141.95 124.074 140.889 124.183 140.231 123.781C139.829 123.525 139.5 123.196 139.792 122.684C140.012 122.318 140.341 122.172 140.743 122.464C141.328 122.83 141.95 123.013 142.499 122.464C143.084 121.879 143.669 121.148 143.267 120.27C142.096 117.746 140.853 115.259 139.573 112.809C139.39 112.443 138.768 112.297 138.402 112.041C138.256 111.931 138.11 111.821 138 111.675C138.183 111.602 138.329 111.456 138.512 111.456C139.573 111.419 140.633 111.419 141.694 111.456C141.913 111.456 142.096 111.602 142.316 111.712C142.133 111.821 141.987 112.004 141.804 112.041C141.438 112.151 141.219 112.333 141.401 112.699C142.352 114.747 143.376 116.795 144.364 118.844C144.364 118.844 144.4 118.844 144.474 118.844Z" fill="white"/>
<path d="M244.431 123.415C242.712 123.415 240.993 123.415 239.275 123.415C239.238 123.342 239.201 123.269 239.201 123.196C239.384 123.086 239.567 122.94 239.787 122.903C240.884 122.72 241.067 122.538 241.067 121.44C241.067 118.368 241.067 115.259 241.067 112.041C240.152 112.077 239.275 112.077 238.397 112.224C237.629 112.333 237.556 113.065 237.336 113.65C237.263 113.906 237.043 114.089 236.897 114.308C236.824 114.272 236.751 114.235 236.678 114.199C236.751 113.138 236.824 112.114 236.861 111.126C239.311 111.785 241.762 111.346 244.212 111.419C245.053 111.456 245.931 111.273 246.809 111.163C246.845 112.041 246.918 113.101 246.992 114.162C246.918 114.199 246.882 114.235 246.809 114.272C246.662 114.162 246.48 114.052 246.406 113.906C245.712 112.077 245.712 112.077 243.773 112.077C243.407 112.077 243.042 112.077 242.603 112.077C242.566 112.297 242.566 112.48 242.566 112.663C242.566 115.552 242.566 118.405 242.566 121.294C242.566 122.538 242.712 122.684 243.919 122.903C244.102 122.94 244.285 123.086 244.468 123.159C244.505 123.269 244.468 123.342 244.431 123.415Z" fill="white"/>
<path d="M263.01 112.15C262.169 112.15 261.437 112.114 260.669 112.15C259.791 112.187 259.535 112.845 259.316 113.577C259.243 113.869 259.06 114.089 258.914 114.381C258.804 114.345 258.731 114.308 258.621 114.272C258.694 113.211 258.731 112.15 258.804 111.017C260.194 111.858 261.657 111.419 263.083 111.492C264.51 111.565 265.972 111.529 267.399 111.492C267.838 111.492 268.313 111.236 268.789 111.09C268.862 112.15 268.898 113.211 268.972 114.235C268.935 114.272 268.862 114.308 268.825 114.345C268.679 114.235 268.496 114.125 268.423 113.979C268.277 113.65 268.277 113.248 268.057 112.992C267.765 112.662 267.326 112.26 266.923 112.187C266.192 112.041 265.424 112.15 264.656 112.15C264.656 112.37 264.619 112.553 264.619 112.699C264.619 115.588 264.619 118.441 264.619 121.331C264.619 122.574 264.766 122.72 265.972 122.94C266.155 122.976 266.338 123.123 266.521 123.196C266.485 123.269 266.485 123.342 266.448 123.415C264.729 123.415 263.01 123.415 261.291 123.415C261.254 123.342 261.254 123.269 261.218 123.196C261.474 123.086 261.693 122.94 261.949 122.903C262.644 122.83 263.083 122.537 263.083 121.806C263.01 118.624 263.01 115.406 263.01 112.15Z" fill="white"/>
<path d="M274.97 123.415C273.397 123.415 271.824 123.415 270.252 123.415C270.215 123.342 270.179 123.269 270.179 123.196C270.361 123.086 270.581 122.94 270.764 122.94C271.532 122.866 271.824 122.464 271.824 121.733C271.824 119.063 271.824 116.429 271.824 113.759C271.824 112.26 271.751 112.187 270.105 111.931C270.288 111.748 270.398 111.528 270.544 111.528C271.934 111.492 273.324 111.492 274.714 111.528C274.824 111.528 274.933 111.675 275.043 111.784C274.933 111.858 274.824 112.04 274.714 112.04C273.653 112.15 273.397 112.296 273.397 113.686C273.361 116.21 273.397 118.77 273.397 121.294C273.397 122.647 273.434 122.647 274.714 123.013C274.86 123.049 274.97 123.232 275.116 123.342C275.043 123.305 275.006 123.342 274.97 123.415Z" fill="white"/>
<path d="M304.778 111.602C300.791 108.676 299.585 104.982 300.974 100.337C301.194 100.483 301.267 100.52 301.304 100.593C303.608 104.251 306.68 107.25 309.716 110.285C311.142 111.712 312.605 113.101 314.068 114.564C315.202 115.698 316.116 117.015 316.409 118.661C316.774 120.782 315.129 123.013 313.007 123.269C310.886 123.525 309.13 122.574 308.435 120.782C307.667 118.88 308.289 116.905 309.972 115.662C310.118 115.552 310.228 115.369 310.337 115.186C310.154 115.113 309.972 114.967 309.789 114.93C307.631 114.528 304.998 116.393 304.449 118.697C303.498 122.611 306.204 126.853 310.337 127.804C315.714 129.011 320.249 125.902 321.273 121.111C321.785 118.844 321.419 116.649 320.249 114.711C319.371 113.284 318.347 111.895 317.177 110.688C313.848 107.286 310.374 104.031 307.046 100.63C304.485 98.0329 302.364 95.107 301.157 91.5959C298.67 84.5005 302.584 74.6255 312.422 73.3088C319.7 72.3579 326.101 77.2954 327.271 83.2204C328.076 87.3167 327.088 90.8644 323.76 93.6075C323.65 93.7172 323.504 93.7903 323.211 93.9732C326.028 95.8019 327.417 98.289 327.637 101.434C327.747 102.714 327.491 103.958 326.942 105.201C326.796 105.092 326.686 105.019 326.649 104.945C324.93 102.129 322.699 99.7519 320.395 97.4112C318.31 95.2899 316.153 93.2417 314.068 91.157C312.934 90.0598 312.02 88.8162 311.691 87.2436C311.361 85.6343 311.837 84.2445 313.117 83.2204C314.47 82.1232 316.006 82.0135 317.579 82.7084C319.079 83.3667 319.81 84.6102 319.883 86.2195C319.956 87.8287 319.371 89.1088 318.018 90.0232C317.908 90.0963 317.835 90.1695 317.762 90.2426C317.725 90.2792 317.725 90.3158 317.652 90.4987C317.945 90.5718 318.201 90.6815 318.457 90.7181C321.236 90.901 323.687 88.5968 323.797 85.744C323.943 81.4648 320.761 77.9903 316.409 77.6246C311.727 77.2222 307.85 79.9287 306.826 84.3542C306.241 86.7681 306.68 89.1088 307.96 91.1936C308.728 92.4371 309.642 93.644 310.666 94.7047C313.702 97.7769 316.848 100.776 319.92 103.848C322.517 106.408 324.821 109.188 326.357 112.553C329.173 118.844 327.088 125.39 323.065 128.938C315.421 135.668 303.681 132.047 300.938 123.086C299.731 119.136 301.047 114.382 304.339 111.968C304.449 111.821 304.559 111.748 304.778 111.602Z" fill="white"/>
<path d="M310.484 71.6627C310.96 71.297 311.435 70.9678 311.874 70.6386C311.838 70.5655 311.801 70.5289 311.764 70.4558C311.655 70.4558 311.545 70.4192 311.435 70.4192C310.74 70.3461 310.338 69.9803 310.338 69.3951C310.301 68.8099 310.74 68.2247 311.326 68.115C311.911 67.9687 312.496 68.2979 312.715 68.9197C313.227 70.2729 312.057 71.8822 310.631 71.809C310.594 71.7724 310.521 71.6993 310.484 71.6627ZM312.24 69.322C311.947 68.9562 311.728 68.7002 311.508 68.4442C311.362 68.6636 311.106 68.9197 311.143 69.1025C311.216 69.3951 311.508 69.6146 311.691 69.8706C311.838 69.7609 311.984 69.578 312.24 69.322Z" fill="white"/>
<path d="M322.188 71.6995C321.895 71.6995 321.639 71.6995 321.347 71.6995C321.127 71.6995 320.944 71.6629 320.688 71.6629C321.164 70.9314 321.164 70.9315 319.555 70.6389C319.957 70.0537 320.323 69.5051 320.725 68.993C320.981 68.6639 321.347 68.4078 321.639 68.1152C321.713 68.5175 321.749 68.9564 321.822 69.3588C321.895 69.7611 321.969 70.1634 322.078 70.6754C321.713 70.8583 321.603 71.1875 322.261 71.5898C322.261 71.6264 322.225 71.6629 322.188 71.6995Z" fill="white"/>
<path d="M315.787 69.9436C315.97 69.5779 316.153 69.2121 316.336 68.8098C316.007 68.8098 315.641 68.8098 315.129 68.8098C315.385 68.5904 315.604 68.2246 315.897 68.1515C316.226 68.0783 316.738 68.1881 316.958 68.4075C317.14 68.5904 317.031 69.0658 316.994 69.4316C317.726 70.4922 317.36 71.4432 316.043 71.7357C315.86 71.7723 315.604 71.7723 315.458 71.6626C315.312 71.5529 315.239 71.3334 315.129 71.1506C315.312 71.1506 315.495 71.1506 315.678 71.114C315.934 71.114 316.409 71.1506 316.446 71.0774C316.555 70.8214 316.555 70.4191 316.409 70.1631C316.299 70.0533 315.934 70.0168 315.787 69.9436Z" fill="white"/>
<path d="M307.339 71.6629C306.863 71.6629 306.351 71.6629 305.839 71.6629C306.461 70.8948 306.388 68.9564 305.656 68.4444C306.095 68.2981 306.497 68.2249 306.9 68.0786C307.229 69.249 306.644 70.4925 307.339 71.6629Z" fill="white"/>
</svg>
