<svg width="511" height="189" viewBox="0 0 511 189" fill="none" xmlns="http://www.w3.org/2000/svg">
<path fill-rule="evenodd" clip-rule="evenodd" d="M492.128 0.000120787H18.0001L17.7687 6.1659e-05L17.7687 6.1642e-05C16.5775 -0.000393257 15.155 -0.000936525 13.9018 0.101452C12.4496 0.2201 10.3697 0.524534 8.19026 1.63502C5.36783 3.07312 3.07312 5.36783 1.63502 8.19026C0.524533 10.3697 0.220099 12.4496 0.101452 13.9018C-0.000936524 15.155 -0.000393257 16.5775 6.1642e-05 17.7687L6.16589e-05 17.7687L0.000120787 18.0001V170.517L6.16589e-05 170.749L6.16419e-05 170.749C-0.000393257 171.94 -0.000936518 173.362 0.101452 174.616C0.2201 176.068 0.524534 178.148 1.63502 180.327C3.07312 183.15 5.36783 185.444 8.19026 186.882C10.3697 187.993 12.4496 188.297 13.9018 188.416C15.1547 188.518 16.5769 188.518 17.7679 188.517H17.7686L18.0001 188.517H492.128L492.359 188.517H492.36C493.551 188.518 494.973 188.518 496.226 188.416C497.678 188.297 499.758 187.993 501.938 186.882C504.76 185.444 507.055 183.15 508.493 180.327C509.604 178.148 509.908 176.068 510.027 174.616C510.129 173.362 510.128 171.94 510.128 170.749L510.128 170.517V18.0001L510.128 17.7686C510.128 16.5775 510.129 15.155 510.027 13.9018C509.908 12.4496 509.604 10.3697 508.493 8.19026C507.055 5.36783 504.76 3.07312 501.938 1.63502C499.758 0.524535 497.678 0.2201 496.226 0.101452C494.973 -0.000937792 493.551 -0.000393244 492.359 6.1659e-05L492.128 0.000120787ZM10.0001 18.0001C10.0001 15.1999 10.0001 13.7997 10.5451 12.7302C11.0245 11.7894 11.7894 11.0245 12.7302 10.5451C13.7997 10.0001 15.1999 10.0001 18.0001 10.0001H492.128C494.928 10.0001 496.328 10.0001 497.398 10.5451C498.339 11.0245 499.104 11.7894 499.583 12.7302C500.128 13.7997 500.128 15.1999 500.128 18.0001V170.517C500.128 173.318 500.128 174.718 499.583 175.787C499.104 176.728 498.339 177.493 497.398 177.972C496.328 178.517 494.928 178.517 492.128 178.517H421.441V101.973V101.814C421.441 100.552 421.441 99.3228 421.356 98.2819C421.263 97.1389 421.042 95.7903 420.351 94.4331C419.392 92.5515 417.862 91.0217 415.981 90.063C414.624 89.3715 413.275 89.1511 412.132 89.0577C411.091 88.9727 409.862 88.9729 408.6 88.973L408.441 88.973H93.4021C90.6407 88.973 88.4021 91.2116 88.4021 93.973C88.4021 96.7345 90.6407 98.973 93.4021 98.973H408.441C409.924 98.973 410.735 98.9769 411.318 99.0245C411.341 99.0264 411.363 99.0284 411.384 99.0303C411.386 99.051 411.387 99.073 411.389 99.0962C411.437 99.6791 411.441 100.49 411.441 101.973V178.517H18.0001C15.1999 178.517 13.7997 178.517 12.7302 177.972C11.7894 177.493 11.0245 176.728 10.5451 175.787C10.0001 174.718 10.0001 173.318 10.0001 170.517V18.0001ZM60.8438 48.129L60.6843 48.129C59.4224 48.1289 58.1934 48.1287 57.1526 48.2138C56.0097 48.3072 54.661 48.5275 53.3039 49.219C51.4223 50.1777 49.8925 51.7075 48.9337 53.5891C48.2422 54.9463 48.0219 56.2949 47.9285 57.4379C47.8435 58.4787 47.8436 59.7076 47.8438 60.9695L47.8438 61.129V130.244L47.8438 130.404C47.8436 131.666 47.8435 132.895 47.9285 133.936C48.0219 135.079 48.2422 136.427 48.9337 137.784C49.8925 139.666 51.4223 141.196 53.3039 142.155C54.661 142.846 56.0097 143.066 57.1526 143.16C58.1934 143.245 59.4223 143.245 60.6842 143.244L60.8438 143.244H302.478C305.239 143.244 307.478 141.006 307.478 138.244C307.478 135.483 305.239 133.244 302.478 133.244H60.8438C59.3612 133.244 58.5499 133.241 57.967 133.193C57.9437 133.191 57.9218 133.189 57.901 133.187C57.8991 133.166 57.8972 133.145 57.8953 133.121C57.8477 132.538 57.8438 131.727 57.8438 130.244V61.129C57.8438 59.6464 57.8477 58.8351 57.8953 58.2522C57.8972 58.229 57.8991 58.207 57.901 58.1863C57.9218 58.1844 57.9437 58.1825 57.967 58.1806C58.5499 58.1329 59.3612 58.129 60.8438 58.129H448.428C449.911 58.129 450.722 58.1329 451.305 58.1806C451.328 58.1825 451.35 58.1844 451.371 58.1863C451.373 58.207 451.375 58.229 451.376 58.2522C451.424 58.8351 451.428 59.6464 451.428 61.129V138.244C451.428 141.006 453.667 143.244 456.428 143.244C459.189 143.244 461.428 141.006 461.428 138.244V61.129V60.97C461.428 59.7079 461.428 58.4788 461.343 57.4379C461.25 56.2949 461.03 54.9462 460.338 53.5891C459.379 51.7075 457.85 50.1777 455.968 49.219L453.698 53.674L455.968 49.219C454.611 48.5275 453.262 48.3072 452.119 48.2138C451.078 48.1287 449.849 48.1289 448.587 48.129L448.428 48.129H60.8438Z" fill="white"/>
</svg>
