<svg width="1366" height="768" viewBox="0 0 1366 768" fill="none" xmlns="http://www.w3.org/2000/svg">
<g opacity="0.6">
<g style="mix-blend-mode:screen">
<path d="M610.217 630.774H768.234L524.302 1113.41H366.285L610.217 630.774ZM609.9 630.255L365.444 1113.92H524.624L769.08 630.255H609.9Z" fill="#1D4098"/>
<path d="M1086.94 630.774L843.01 1113.41H684.993L928.925 630.774H1086.94ZM1087.79 630.255H928.608L684.152 1113.92H843.332L1087.79 630.255Z" fill="#1D4098"/>
<path d="M1247.46 630.774H1405.48L1161.55 1113.41H1003.53L1247.46 630.774ZM1247.14 630.255L1002.69 1113.92H1161.87L1406.32 630.255H1247.14Z" fill="#1D4098"/>
<path d="M1566.16 630.774H1724.18L1480.25 1113.41H1322.23L1566.16 630.774ZM1565.85 630.255L1321.39 1113.92H1480.57L1725.03 630.255H1565.85Z" fill="#1D4098"/>
</g>
<g style="mix-blend-mode:screen">
<path d="M-27.3379 630.773H130.679L-113.253 1113.4H-271.27L-27.3379 630.773ZM-27.6546 630.254L-272.111 1113.92H-112.931L131.525 630.254H-27.6546Z" fill="#1D4098"/>
<path d="M291.364 630.773H449.381L205.449 1113.4H47.4322L291.364 630.773ZM291.047 630.254L46.5913 1113.92H205.771L450.227 630.254H291.047Z" fill="#1D4098"/>
</g>
<g style="mix-blend-mode:screen">
<path d="M142.904 -336.481H300.921L56.9897 146.151H-101.027L142.904 -336.481ZM142.588 -337L-101.874 146.67H57.3063L301.762 -337H142.583H142.588Z" fill="#1D4098"/>
<path d="M215.785 147.188L-28.1471 629.82H-186.164L57.7675 147.188H215.785ZM216.631 146.669H57.4509L-187.005 630.339H-27.8253L216.631 146.669Z" fill="#1D4098"/>
<path d="M619.629 -336.481L375.697 146.151H217.68L461.612 -336.481H619.629ZM620.475 -337H461.295L216.839 146.67H376.019L620.475 -337Z" fill="#1D4098"/>
<path d="M376.47 147.189H534.487L290.555 629.82H132.538L376.47 147.189ZM376.153 146.67L131.697 630.339H290.877L535.333 146.67H376.153Z" fill="#1D4098"/>
<path d="M780.142 -336.481H938.159L694.228 146.151H536.21L780.142 -336.481ZM779.826 -337L535.37 146.67H694.549L939.005 -337H779.826Z" fill="#1D4098"/>
<path d="M695.006 147.189H853.023L609.091 629.82H451.074L695.006 147.189ZM694.689 146.67L450.233 630.339H609.413L853.869 146.67H694.689Z" fill="#1D4098"/>
<path d="M1098.85 -336.481H1256.87L1012.94 146.151H854.918L1098.85 -336.481ZM1098.53 -337L854.077 146.67H1013.26L1257.71 -337H1098.53Z" fill="#1D4098"/>
<path d="M1013.71 147.189H1171.73L927.794 629.82H769.777L1013.71 147.189ZM1013.39 146.67L768.937 630.339H928.116L1172.57 146.67H1013.39Z" fill="#1D4098"/>
</g>
<g style="mix-blend-mode:screen">
<path d="M1575.72 -336.476L1331.79 146.156H1173.78L1417.71 -336.476H1575.72ZM1576.57 -336.995H1417.39L1172.94 146.675H1332.11L1576.57 -336.995Z" fill="#1D4098"/>
<path d="M1735.33 -336.476L1491.39 146.156H1333.38L1577.31 -336.476H1735.33ZM1736.17 -336.995H1576.99L1332.54 146.675H1491.72L1736.17 -336.995Z" fill="#1D4098"/>
<path d="M1332.57 147.189H1490.58L1246.65 629.82H1088.63L1332.57 147.189ZM1332.25 146.67L1087.79 630.339H1246.97L1491.43 146.67H1332.25Z" fill="#1D4098"/>
</g>
</g>
<path d="M212.647 154.295L221.56 138.857M226.192 146.735L207.808 146.735" stroke="#1D4098" stroke-linecap="round" stroke-linejoin="round"/>
<path d="M690.605 154.924L699.519 139.486M704.15 147.365L685.767 147.365" stroke="#1D4098" stroke-linecap="round" stroke-linejoin="round"/>
<path d="M1168.56 154.924L1177.48 139.486M1182.11 147.365L1163.73 147.365" stroke="#1D4098" stroke-linecap="round" stroke-linejoin="round"/>
<path d="M52.4495 154.295L61.3629 138.857M65.9943 146.735L47.6112 146.735" stroke="#1D4098" stroke-linecap="round" stroke-linejoin="round"/>
<path d="M530.409 154.924L539.322 139.486M543.953 147.365L525.57 147.365" stroke="#1D4098" stroke-linecap="round" stroke-linejoin="round"/>
<path d="M1008.37 154.924L1017.28 139.486M1021.91 147.365L1003.53 147.365" stroke="#1D4098" stroke-linecap="round" stroke-linejoin="round"/>
<path d="M371.789 154.924L380.702 139.486M385.334 147.365L366.951 147.365" stroke="#1D4098" stroke-linecap="round" stroke-linejoin="round"/>
<path d="M849.748 154.924L858.661 139.486M863.293 147.365L844.91 147.365" stroke="#1D4098" stroke-linecap="round" stroke-linejoin="round"/>
<path d="M1327.71 154.924L1336.62 139.486M1341.25 147.365L1322.87 147.365" stroke="#1D4098" stroke-linecap="round" stroke-linejoin="round"/>
<path d="M445.847 638.765L454.761 623.326M459.392 631.205L441.009 631.205" stroke="#1D4098" stroke-linecap="round" stroke-linejoin="round"/>
<path d="M923.806 638.765L932.72 623.326M937.351 631.205L918.968 631.205" stroke="#1D4098" stroke-linecap="round" stroke-linejoin="round"/>
<path d="M285.651 638.765L294.564 623.326M299.195 631.205L280.812 631.205" stroke="#1D4098" stroke-linecap="round" stroke-linejoin="round"/>
<path d="M763.609 638.765L772.523 623.326M777.154 631.205L758.771 631.205" stroke="#1D4098" stroke-linecap="round" stroke-linejoin="round"/>
<path d="M1241.57 638.765L1250.48 623.326M1255.11 631.205L1236.73 631.205" stroke="#1D4098" stroke-linecap="round" stroke-linejoin="round"/>
<path d="M127.032 638.765L135.945 623.326M140.576 631.205L122.193 631.205" stroke="#1D4098" stroke-linecap="round" stroke-linejoin="round"/>
<path d="M604.99 638.765L613.903 623.326M618.534 631.205L600.151 631.205" stroke="#1D4098" stroke-linecap="round" stroke-linejoin="round"/>
<path d="M1082.95 638.765L1091.86 623.326M1096.49 631.205L1078.11 631.205" stroke="#1D4098" stroke-linecap="round" stroke-linejoin="round"/>
</svg>
