<svg width="68" height="55" viewBox="0 0 68 55" fill="none" xmlns="http://www.w3.org/2000/svg">
<path id="Vector" d="M32.2222 38.4286C29.2767 38.4286 26.8889 35.9821 26.8889 32.9643C26.8889 29.9464 29.2767 27.5 32.2222 27.5M66 13.657V41.3427C66 45.4231 66.0008 47.4636 65.2257 49.0221C64.5439 50.393 63.4546 51.5073 62.1166 52.2058C60.5954 52.9999 58.6055 53 54.6229 53H13.3785C9.39588 53 7.40309 52.9999 5.88194 52.2058C4.5439 51.5073 3.45683 50.393 2.77506 49.0221C2 47.4636 2 45.4231 2 41.3427V13.657C2 9.57658 2 7.53665 2.77506 5.97815C3.45683 4.60725 4.5439 3.4926 5.88194 2.7941C7.40309 2 9.39588 2 13.3785 2H54.6229C58.6055 2 60.5954 2 62.1166 2.7941C63.4546 3.4926 64.5439 4.60725 65.2257 5.97815C66.0008 7.53665 66 9.57658 66 13.657ZM51.7778 32.9643C51.7778 35.9821 49.39 38.4286 46.4444 38.4286C43.4989 38.4286 41.1111 35.9821 41.1111 32.9643C41.1111 29.9464 43.4989 27.5 46.4444 27.5C49.39 27.5 51.7778 29.9464 51.7778 32.9643Z" stroke="#0C0E4A" stroke-width="4" stroke-linecap="round" stroke-linejoin="round"/>
</svg>
