<svg width="16" height="17" viewBox="0 0 16 17" fill="none" xmlns="http://www.w3.org/2000/svg">
<path id="Vector" d="M1 9.34814H15V7.84814H1V9.34814ZM8 14.8481C4.54822 14.8481 1.75 12.0499 1.75 8.59814H0.25C0.25 12.8784 3.71979 16.3481 8 16.3481V14.8481ZM1.75 8.59814C1.75 5.14636 4.54822 2.34814 8 2.34814V0.848145C3.71979 0.848145 0.25 4.31794 0.25 8.59814H1.75ZM8 2.34814C11.4518 2.34814 14.25 5.14636 14.25 8.59814H15.75C15.75 4.31794 12.2802 0.848145 8 0.848145V2.34814ZM14.25 8.59814C14.25 12.0499 11.4518 14.8481 8 14.8481V16.3481C12.2802 16.3481 15.75 12.8784 15.75 8.59814H14.25ZM8 14.8481C7.81448 14.8481 7.58128 14.7667 7.30605 14.5048C7.02697 14.2392 6.74151 13.8194 6.48547 13.2433C5.97423 12.093 5.63889 10.4513 5.63889 8.59814H4.13889C4.13889 10.611 4.49999 12.4693 5.11475 13.8525C5.42171 14.5432 5.80665 15.1485 6.27198 15.5913C6.74117 16.0379 7.32641 16.3481 8 16.3481V14.8481ZM5.63889 8.59814C5.63889 6.74497 5.97423 5.10329 6.48547 3.953C6.74151 3.37691 7.02697 2.95713 7.30605 2.69154C7.58128 2.42961 7.81448 2.34814 8 2.34814V0.848145C7.32641 0.848145 6.74117 1.15843 6.27198 1.60494C5.80665 2.04778 5.42171 2.65313 5.11475 3.34379C4.49999 4.727 4.13889 6.58533 4.13889 8.59814H5.63889ZM8 2.34814C8.18552 2.34814 8.41872 2.42961 8.69395 2.69154C8.97303 2.95713 9.25849 3.37691 9.51453 3.953C10.0258 5.10329 10.3611 6.74497 10.3611 8.59814H11.8611C11.8611 6.58533 11.5 4.727 10.8852 3.34379C10.5783 2.65313 10.1934 2.04778 9.72802 1.60494C9.25883 1.15843 8.67359 0.848145 8 0.848145V2.34814ZM10.3611 8.59814C10.3611 10.4513 10.0258 12.093 9.51453 13.2433C9.25849 13.8194 8.97303 14.2392 8.69395 14.5048C8.41872 14.7667 8.18552 14.8481 8 14.8481V16.3481C8.67359 16.3481 9.25883 16.0379 9.72802 15.5913C10.1934 15.1485 10.5783 14.5432 10.8852 13.8525C11.5 12.4693 11.8611 10.611 11.8611 8.59814H10.3611Z" fill="#0B0E52"/>
</svg>
