<svg xmlns="http://www.w3.org/2000/svg" width="441" height="136" viewBox="0 0 441 136" fill="none"> <path d="M79.1204 0.247131L92.0853 16.9987L70.4133 119.302L50.2555 135.958H0.949463L29.9088 0.247131H79.1204ZM44.956 107.661L61.802 28.5439L59.3418 25.7045H52.3379L35.4918 105.105L22.3367 109.836L22.1477 110.593H41.265L44.956 107.66V107.661Z" fill="white"/> <path d="M165.147 16.9974L154.074 69.2373L143.853 77.85L142.433 135.958H114.516L117.07 85.9889H112.622L101.929 135.958H74.0112L102.971 0.247131H152.182L165.147 16.9987V16.9974ZM105.62 61.572L105.431 62.3291H124.643L128.333 59.3953L134.864 28.5439L132.404 25.7045H125.4L118.869 56.6504L105.62 61.572Z" fill="white"/> <path d="M223.349 0.247131L236.315 16.9987L214.549 119.302L194.391 135.958H161.837L148.87 119.302L170.637 16.9987L190.795 0.247131H223.35H223.349ZM205.842 28.5439L203.571 25.7045H199.691L196 28.5439L179.154 107.661L181.425 110.595H185.495L189.186 107.661L205.842 28.5439Z" fill="white"/> <path d="M218.144 135.958L247.103 0.247131H277.671L276.914 52.5815L275.211 71.7933H278.24L280.037 52.5815L291.299 0.247131H319.122L290.257 135.958H259.689L260.257 83.6232L262.149 64.4114H259.121L257.133 83.6232L246.06 135.958H218.143H218.144Z" fill="white"/> <path d="M344.485 49.3644L331.141 54.1903L330.952 54.9474H360.574L355.369 79.3642H337.861L332.467 105.105L319.312 109.836L319.123 110.593H350.922L345.434 135.956H297.925L326.884 0.245911H374.298L368.904 25.7046H349.315L344.489 49.3644H344.485Z" fill="white"/> <path d="M366.347 135.958L353.382 119.302L360.007 88.0712H387.83L383.761 107.851L385.938 110.596H390.197L393.699 107.851L397.768 88.4504L366.348 59.2077L375.433 16.9987L395.591 0.247131H427.39L440.355 16.9987L434.204 45.8623H406.286L410.166 28.1647L407.989 25.7045H404.109L400.892 28.1647L397.39 45.2941L428.621 74.5369L419.062 119.3L398.904 135.956H366.348L366.347 135.958Z" fill="white"/> </svg>