<svg xmlns="http://www.w3.org/2000/svg" width="337" height="136" viewBox="0 0 337 136" fill="none"> <path d="M81.3882 45.6151H53.4694L56.9714 28.2967L54.7001 25.4574H50.8202L47.1293 28.2967L30.2832 107.414L32.5545 110.348H37.3817L40.8837 107.414L47.1306 78.3599H41.4505L46.3722 55.4572H79.117L62.2709 135.71H43.2494L44.5747 128.897L46.7514 124.449H44.3857L42.3034 128.897L34.1645 135.71H12.9662L0 119.055L21.7664 16.7516L41.9242 0H74.48L87.4462 16.7516L81.3896 45.6151H81.3882Z" fill="white"/> <path d="M109.685 0H152.177L138.17 135.71H108.549L113.374 104.291H102.586L94.2584 135.71H66.1506L109.685 0ZM96.3407 80.6311L96.1518 81.484H116.878L123.503 39.3695L125.774 27.9189H122.934L120.38 39.3695L110.064 75.9942L96.3407 80.6311Z" fill="white"/> <path d="M142.241 135.71L171.2 0H220.601L207.446 83.9442L202.335 107.793H205.458L210.474 83.9442L233.188 0H281.453L252.589 135.71H224.671L244.64 42.6813L246.911 31.2306H243.883L241.517 42.6813L214.923 135.71H179.907L193.063 42.6813L195.428 31.2306H192.305L190.129 42.6813L170.16 135.71H142.242H142.241Z" fill="white"/> <path d="M307.005 49.1171L293.661 53.943L293.472 54.7001H323.094L317.889 79.117H300.381L294.987 104.858L281.832 109.589L281.643 110.346H313.442L307.954 135.709H260.445L289.402 0H336.816L331.422 25.4587H311.832L307.006 49.1185L307.005 49.1171Z" fill="white"/> </svg>